%TF.GenerationSoftware,KiCad,Pcbnew,(6.0.0)*%
%TF.CreationDate,2022-03-30T13:23:40+02:00*%
%TF.ProjectId,led_display_digit,6c65645f-6469-4737-906c-61795f646967,rev?*%
%TF.SameCoordinates,Original*%
%TF.FileFunction,Legend,Bot*%
%TF.FilePolarity,Positive*%
%FSLAX46Y46*%
G04 Gerber Fmt 4.6, Leading zero omitted, Abs format (unit mm)*
G04 Created by KiCad (PCBNEW (6.0.0)) date 2022-03-30 13:23:40*
%MOMM*%
%LPD*%
G01*
G04 APERTURE LIST*
%ADD10C,0.150000*%
%ADD11C,0.120000*%
G04 APERTURE END LIST*
D10*
%TO.C,Q2*%
X85595238Y-69147619D02*
X85690476Y-69100000D01*
X85785714Y-69004761D01*
X85928571Y-68861904D01*
X86023809Y-68814285D01*
X86119047Y-68814285D01*
X86071428Y-69052380D02*
X86166666Y-69004761D01*
X86261904Y-68909523D01*
X86309523Y-68719047D01*
X86309523Y-68385714D01*
X86261904Y-68195238D01*
X86166666Y-68100000D01*
X86071428Y-68052380D01*
X85880952Y-68052380D01*
X85785714Y-68100000D01*
X85690476Y-68195238D01*
X85642857Y-68385714D01*
X85642857Y-68719047D01*
X85690476Y-68909523D01*
X85785714Y-69004761D01*
X85880952Y-69052380D01*
X86071428Y-69052380D01*
X85261904Y-68147619D02*
X85214285Y-68100000D01*
X85119047Y-68052380D01*
X84880952Y-68052380D01*
X84785714Y-68100000D01*
X84738095Y-68147619D01*
X84690476Y-68242857D01*
X84690476Y-68338095D01*
X84738095Y-68480952D01*
X85309523Y-69052380D01*
X84690476Y-69052380D01*
%TO.C,Q3*%
X96595238Y-69147619D02*
X96690476Y-69100000D01*
X96785714Y-69004761D01*
X96928571Y-68861904D01*
X97023809Y-68814285D01*
X97119047Y-68814285D01*
X97071428Y-69052380D02*
X97166666Y-69004761D01*
X97261904Y-68909523D01*
X97309523Y-68719047D01*
X97309523Y-68385714D01*
X97261904Y-68195238D01*
X97166666Y-68100000D01*
X97071428Y-68052380D01*
X96880952Y-68052380D01*
X96785714Y-68100000D01*
X96690476Y-68195238D01*
X96642857Y-68385714D01*
X96642857Y-68719047D01*
X96690476Y-68909523D01*
X96785714Y-69004761D01*
X96880952Y-69052380D01*
X97071428Y-69052380D01*
X96309523Y-68052380D02*
X95690476Y-68052380D01*
X96023809Y-68433333D01*
X95880952Y-68433333D01*
X95785714Y-68480952D01*
X95738095Y-68528571D01*
X95690476Y-68623809D01*
X95690476Y-68861904D01*
X95738095Y-68957142D01*
X95785714Y-69004761D01*
X95880952Y-69052380D01*
X96166666Y-69052380D01*
X96261904Y-69004761D01*
X96309523Y-68957142D01*
%TO.C,Q1*%
X74595238Y-69147619D02*
X74690476Y-69100000D01*
X74785714Y-69004761D01*
X74928571Y-68861904D01*
X75023809Y-68814285D01*
X75119047Y-68814285D01*
X75071428Y-69052380D02*
X75166666Y-69004761D01*
X75261904Y-68909523D01*
X75309523Y-68719047D01*
X75309523Y-68385714D01*
X75261904Y-68195238D01*
X75166666Y-68100000D01*
X75071428Y-68052380D01*
X74880952Y-68052380D01*
X74785714Y-68100000D01*
X74690476Y-68195238D01*
X74642857Y-68385714D01*
X74642857Y-68719047D01*
X74690476Y-68909523D01*
X74785714Y-69004761D01*
X74880952Y-69052380D01*
X75071428Y-69052380D01*
X73690476Y-69052380D02*
X74261904Y-69052380D01*
X73976190Y-69052380D02*
X73976190Y-68052380D01*
X74071428Y-68195238D01*
X74166666Y-68290476D01*
X74261904Y-68338095D01*
%TO.C,Q4*%
X107595238Y-69147619D02*
X107690476Y-69100000D01*
X107785714Y-69004761D01*
X107928571Y-68861904D01*
X108023809Y-68814285D01*
X108119047Y-68814285D01*
X108071428Y-69052380D02*
X108166666Y-69004761D01*
X108261904Y-68909523D01*
X108309523Y-68719047D01*
X108309523Y-68385714D01*
X108261904Y-68195238D01*
X108166666Y-68100000D01*
X108071428Y-68052380D01*
X107880952Y-68052380D01*
X107785714Y-68100000D01*
X107690476Y-68195238D01*
X107642857Y-68385714D01*
X107642857Y-68719047D01*
X107690476Y-68909523D01*
X107785714Y-69004761D01*
X107880952Y-69052380D01*
X108071428Y-69052380D01*
X106785714Y-68385714D02*
X106785714Y-69052380D01*
X107023809Y-68004761D02*
X107261904Y-68719047D01*
X106642857Y-68719047D01*
D11*
%TO.C,Q2*%
X85500000Y-69440000D02*
X84850000Y-69440000D01*
X85500000Y-69440000D02*
X87175000Y-69440000D01*
X85500000Y-72560000D02*
X84850000Y-72560000D01*
X85500000Y-72560000D02*
X86150000Y-72560000D01*
%TO.C,Q3*%
X96500000Y-72560000D02*
X97150000Y-72560000D01*
X96500000Y-72560000D02*
X95850000Y-72560000D01*
X96500000Y-69440000D02*
X95850000Y-69440000D01*
X96500000Y-69440000D02*
X98175000Y-69440000D01*
%TO.C,Q1*%
X74500000Y-72560000D02*
X75150000Y-72560000D01*
X74500000Y-69440000D02*
X73850000Y-69440000D01*
X74500000Y-69440000D02*
X76175000Y-69440000D01*
X74500000Y-72560000D02*
X73850000Y-72560000D01*
%TO.C,Q4*%
X107500000Y-72560000D02*
X106850000Y-72560000D01*
X107500000Y-69440000D02*
X106850000Y-69440000D01*
X107500000Y-69440000D02*
X109175000Y-69440000D01*
X107500000Y-72560000D02*
X108150000Y-72560000D01*
%TD*%
M02*
