M48
; DRILL file {KiCad (6.0.0)} date Wed Mar 30 13:23:44 2022
; FORMAT={-:-/ absolute / metric / decimal}
; #@! TF.CreationDate,2022-03-30T13:23:44+02:00
; #@! TF.GenerationSoftware,Kicad,Pcbnew,(6.0.0)
; #@! TF.FileFunction,Plated,1,2,PTH
FMAT,2
METRIC
; #@! TA.AperFunction,Plated,PTH,ViaDrill
T1C0.400
; #@! TA.AperFunction,Plated,PTH,ComponentDrill
T2C1.000
%
G90
G05
T1
X71.25Y-66.75
X71.5Y-59.0
X71.75Y-72.0
X72.0Y-64.0
X73.0Y-60.25
X73.5Y-72.0
X75.25Y-66.25
X75.5Y-59.25
X75.75Y-68.25
X76.25Y-62.5
X77.25Y-69.25
X77.75Y-67.0
X78.5Y-61.25
X81.5Y-56.5
X82.0Y-73.5
X83.0Y-64.0
X84.0Y-60.25
X84.5Y-72.0
X86.25Y-66.25
X86.5Y-59.25
X86.75Y-68.25
X87.25Y-62.5
X88.25Y-69.25
X88.75Y-67.0
X89.5Y-61.25
X92.75Y-56.5
X94.0Y-64.0
X95.0Y-60.25
X95.25Y-72.25
X97.25Y-66.25
X97.5Y-59.25
X97.75Y-68.25
X98.25Y-62.5
X99.25Y-69.25
X99.75Y-67.0
X100.5Y-61.25
X103.75Y-73.25
X104.0Y-56.75
X105.0Y-64.0
X106.0Y-60.25
X106.25Y-72.25
X108.25Y-66.25
X108.5Y-59.25
X108.75Y-68.25
X109.25Y-62.5
X110.25Y-69.25
X110.75Y-67.0
X111.5Y-61.25
X113.25Y-56.25
X114.5Y-73.25
T2
X87.0Y-74.75
X89.54Y-74.75
X92.08Y-74.75
X94.62Y-74.75
X97.16Y-74.75
X118.25Y-57.5
X118.25Y-60.04
X118.25Y-62.58
X118.25Y-65.12
X118.25Y-67.66
X118.25Y-70.2
X118.25Y-72.74
T0
M30
