%TF.GenerationSoftware,KiCad,Pcbnew,(6.0.0)*%
%TF.CreationDate,2022-03-30T13:23:39+02:00*%
%TF.ProjectId,led_display_digit,6c65645f-6469-4737-906c-61795f646967,rev?*%
%TF.SameCoordinates,Original*%
%TF.FileFunction,Copper,L1,Top*%
%TF.FilePolarity,Positive*%
%FSLAX46Y46*%
G04 Gerber Fmt 4.6, Leading zero omitted, Abs format (unit mm)*
G04 Created by KiCad (PCBNEW (6.0.0)) date 2022-03-30 13:23:40*
%MOMM*%
%LPD*%
G01*
G04 APERTURE LIST*
G04 Aperture macros list*
%AMRoundRect*
0 Rectangle with rounded corners*
0 $1 Rounding radius*
0 $2 $3 $4 $5 $6 $7 $8 $9 X,Y pos of 4 corners*
0 Add a 4 corners polygon primitive as box body*
4,1,4,$2,$3,$4,$5,$6,$7,$8,$9,$2,$3,0*
0 Add four circle primitives for the rounded corners*
1,1,$1+$1,$2,$3*
1,1,$1+$1,$4,$5*
1,1,$1+$1,$6,$7*
1,1,$1+$1,$8,$9*
0 Add four rect primitives between the rounded corners*
20,1,$1+$1,$2,$3,$4,$5,0*
20,1,$1+$1,$4,$5,$6,$7,0*
20,1,$1+$1,$6,$7,$8,$9,0*
20,1,$1+$1,$8,$9,$2,$3,0*%
G04 Aperture macros list end*
%TA.AperFunction,SMDPad,CuDef*%
%ADD10RoundRect,0.147500X-0.172500X0.147500X-0.172500X-0.147500X0.172500X-0.147500X0.172500X0.147500X0*%
%TD*%
%TA.AperFunction,SMDPad,CuDef*%
%ADD11RoundRect,0.147500X0.147500X0.172500X-0.147500X0.172500X-0.147500X-0.172500X0.147500X-0.172500X0*%
%TD*%
%TA.AperFunction,SMDPad,CuDef*%
%ADD12RoundRect,0.135000X0.185000X-0.135000X0.185000X0.135000X-0.185000X0.135000X-0.185000X-0.135000X0*%
%TD*%
%TA.AperFunction,SMDPad,CuDef*%
%ADD13RoundRect,0.135000X0.135000X0.185000X-0.135000X0.185000X-0.135000X-0.185000X0.135000X-0.185000X0*%
%TD*%
%TA.AperFunction,SMDPad,CuDef*%
%ADD14RoundRect,0.147500X0.172500X-0.147500X0.172500X0.147500X-0.172500X0.147500X-0.172500X-0.147500X0*%
%TD*%
%TA.AperFunction,SMDPad,CuDef*%
%ADD15RoundRect,0.135000X-0.185000X0.135000X-0.185000X-0.135000X0.185000X-0.135000X0.185000X0.135000X0*%
%TD*%
%TA.AperFunction,SMDPad,CuDef*%
%ADD16RoundRect,0.147500X-0.147500X-0.172500X0.147500X-0.172500X0.147500X0.172500X-0.147500X0.172500X0*%
%TD*%
%TA.AperFunction,ComponentPad*%
%ADD17R,1.700000X1.700000*%
%TD*%
%TA.AperFunction,ComponentPad*%
%ADD18O,1.700000X1.700000*%
%TD*%
%TA.AperFunction,ViaPad*%
%ADD19C,0.800000*%
%TD*%
%TA.AperFunction,Conductor*%
%ADD20C,0.250000*%
%TD*%
G04 APERTURE END LIST*
D10*
%TO.P,D6,1,K*%
%TO.N,Net-(D4-Pad1)*%
X80800000Y-62722500D03*
%TO.P,D6,2,A*%
%TO.N,Seg_B*%
X80800000Y-63692500D03*
%TD*%
D11*
%TO.P,D3,1,K*%
%TO.N,Net-(D1-Pad1)*%
X79785000Y-58200000D03*
%TO.P,D3,2,A*%
%TO.N,Seg_A*%
X78815000Y-58200000D03*
%TD*%
D10*
%TO.P,D81,1,K*%
%TO.N,Net-(D79-Pad1)*%
X107000000Y-58907500D03*
%TO.P,D81,2,A*%
%TO.N,Seg_F*%
X107000000Y-59877500D03*
%TD*%
D11*
%TO.P,D73,1,K*%
%TO.N,Net-(D73-Pad1)*%
X112785000Y-70500000D03*
%TO.P,D73,2,A*%
%TO.N,Seg_D*%
X111815000Y-70500000D03*
%TD*%
D12*
%TO.P,R6,1*%
%TO.N,Net-(D16-Pad1)*%
X73000000Y-58510000D03*
%TO.P,R6,2*%
%TO.N,Net-(Q1-Pad3)*%
X73000000Y-57490000D03*
%TD*%
D10*
%TO.P,D7,1,K*%
%TO.N,Net-(D7-Pad1)*%
X80800000Y-65000000D03*
%TO.P,D7,2,A*%
%TO.N,Seg_C*%
X80800000Y-65970000D03*
%TD*%
%TO.P,D16,1,K*%
%TO.N,Net-(D16-Pad1)*%
X74000000Y-62722500D03*
%TO.P,D16,2,A*%
%TO.N,Seg_F*%
X74000000Y-63692500D03*
%TD*%
D13*
%TO.P,R25,1*%
%TO.N,Net-(D73-Pad1)*%
X108310000Y-71500000D03*
%TO.P,R25,2*%
%TO.N,Net-(Q4-Pad3)*%
X107290000Y-71500000D03*
%TD*%
D12*
%TO.P,R26,1*%
%TO.N,Net-(D76-Pad1)*%
X106000000Y-65410000D03*
%TO.P,R26,2*%
%TO.N,Net-(Q4-Pad3)*%
X106000000Y-64390000D03*
%TD*%
D14*
%TO.P,D17,1,K*%
%TO.N,Net-(D16-Pad1)*%
X74000000Y-61785000D03*
%TO.P,D17,2,A*%
%TO.N,Seg_F*%
X74000000Y-60815000D03*
%TD*%
D10*
%TO.P,D18,1,K*%
%TO.N,Net-(D16-Pad1)*%
X74000000Y-58907500D03*
%TO.P,D18,2,A*%
%TO.N,Seg_F*%
X74000000Y-59877500D03*
%TD*%
%TO.P,D58,1,K*%
%TO.N,Net-(D58-Pad1)*%
X96000000Y-62722500D03*
%TO.P,D58,2,A*%
%TO.N,Seg_F*%
X96000000Y-63692500D03*
%TD*%
D11*
%TO.P,D66,1,K*%
%TO.N,Net-(D64-Pad1)*%
X112785000Y-58200000D03*
%TO.P,D66,2,A*%
%TO.N,Seg_A*%
X111815000Y-58200000D03*
%TD*%
D10*
%TO.P,D46,1,K*%
%TO.N,Net-(D46-Pad1)*%
X102800000Y-58907500D03*
%TO.P,D46,2,A*%
%TO.N,Seg_B*%
X102800000Y-59877500D03*
%TD*%
D14*
%TO.P,D38,1,K*%
%TO.N,Net-(D37-Pad1)*%
X85000000Y-61785000D03*
%TO.P,D38,2,A*%
%TO.N,Seg_F*%
X85000000Y-60815000D03*
%TD*%
D10*
%TO.P,D39,1,K*%
%TO.N,Net-(D37-Pad1)*%
X85000000Y-58907500D03*
%TO.P,D39,2,A*%
%TO.N,Seg_F*%
X85000000Y-59877500D03*
%TD*%
%TO.P,D25,1,K*%
%TO.N,Net-(D25-Pad1)*%
X91800000Y-58907500D03*
%TO.P,D25,2,A*%
%TO.N,Seg_B*%
X91800000Y-59877500D03*
%TD*%
D14*
%TO.P,D80,1,K*%
%TO.N,Net-(D79-Pad1)*%
X107000000Y-61785000D03*
%TO.P,D80,2,A*%
%TO.N,Seg_F*%
X107000000Y-60815000D03*
%TD*%
%TO.P,D8,1,K*%
%TO.N,Net-(D7-Pad1)*%
X80800000Y-67877500D03*
%TO.P,D8,2,A*%
%TO.N,Seg_C*%
X80800000Y-66907500D03*
%TD*%
D10*
%TO.P,D70,1,K*%
%TO.N,Net-(D70-Pad1)*%
X113800000Y-65000000D03*
%TO.P,D70,2,A*%
%TO.N,Seg_C*%
X113800000Y-65970000D03*
%TD*%
D14*
%TO.P,D29,1,K*%
%TO.N,Net-(D28-Pad1)*%
X91800000Y-67877500D03*
%TO.P,D29,2,A*%
%TO.N,Seg_C*%
X91800000Y-66907500D03*
%TD*%
D12*
%TO.P,R19,1*%
%TO.N,Net-(D55-Pad1)*%
X95000000Y-65410000D03*
%TO.P,R19,2*%
%TO.N,Net-(Q3-Pad3)*%
X95000000Y-64390000D03*
%TD*%
D10*
%TO.P,D48,1,K*%
%TO.N,Net-(D46-Pad1)*%
X102800000Y-62722500D03*
%TO.P,D48,2,A*%
%TO.N,Seg_B*%
X102800000Y-63692500D03*
%TD*%
D11*
%TO.P,D21,1,K*%
%TO.N,Net-(D19-Pad1)*%
X79785000Y-64292500D03*
%TO.P,D21,2,A*%
%TO.N,Seg_G*%
X78815000Y-64292500D03*
%TD*%
D13*
%TO.P,R1,1*%
%TO.N,Net-(D1-Pad1)*%
X75260000Y-57000000D03*
%TO.P,R1,2*%
%TO.N,Net-(Q1-Pad3)*%
X74240000Y-57000000D03*
%TD*%
D15*
%TO.P,R9,1*%
%TO.N,Net-(D25-Pad1)*%
X92800000Y-63190000D03*
%TO.P,R9,2*%
%TO.N,Net-(Q2-Pad3)*%
X92800000Y-64210000D03*
%TD*%
D10*
%TO.P,D69,1,K*%
%TO.N,Net-(D67-Pad1)*%
X113800000Y-62722500D03*
%TO.P,D69,2,A*%
%TO.N,Seg_B*%
X113800000Y-63692500D03*
%TD*%
%TO.P,D51,1,K*%
%TO.N,Net-(D49-Pad1)*%
X102800000Y-68815000D03*
%TO.P,D51,2,A*%
%TO.N,Seg_C*%
X102800000Y-69785000D03*
%TD*%
%TO.P,D28,1,K*%
%TO.N,Net-(D28-Pad1)*%
X91800000Y-65000000D03*
%TO.P,D28,2,A*%
%TO.N,Seg_C*%
X91800000Y-65970000D03*
%TD*%
D13*
%TO.P,R7,1*%
%TO.N,Net-(D19-Pad1)*%
X76010000Y-65300000D03*
%TO.P,R7,2*%
%TO.N,Net-(Q1-Pad3)*%
X74990000Y-65300000D03*
%TD*%
D16*
%TO.P,D62,1,K*%
%TO.N,Net-(D61-Pad1)*%
X98907500Y-64292500D03*
%TO.P,D62,2,A*%
%TO.N,Seg_G*%
X99877500Y-64292500D03*
%TD*%
D14*
%TO.P,D5,1,K*%
%TO.N,Net-(D4-Pad1)*%
X80800000Y-61785000D03*
%TO.P,D5,2,A*%
%TO.N,Seg_B*%
X80800000Y-60815000D03*
%TD*%
%TO.P,D14,1,K*%
%TO.N,Net-(D13-Pad1)*%
X74000000Y-67877500D03*
%TO.P,D14,2,A*%
%TO.N,Seg_E*%
X74000000Y-66907500D03*
%TD*%
D10*
%TO.P,D67,1,K*%
%TO.N,Net-(D67-Pad1)*%
X113800000Y-58907500D03*
%TO.P,D67,2,A*%
%TO.N,Seg_B*%
X113800000Y-59877500D03*
%TD*%
D16*
%TO.P,D83,1,K*%
%TO.N,Net-(D82-Pad1)*%
X109907500Y-64292500D03*
%TO.P,D83,2,A*%
%TO.N,Seg_G*%
X110877500Y-64292500D03*
%TD*%
D14*
%TO.P,D59,1,K*%
%TO.N,Net-(D58-Pad1)*%
X96000000Y-61785000D03*
%TO.P,D59,2,A*%
%TO.N,Seg_F*%
X96000000Y-60815000D03*
%TD*%
D11*
%TO.P,D61,1,K*%
%TO.N,Net-(D61-Pad1)*%
X97970000Y-64292500D03*
%TO.P,D61,2,A*%
%TO.N,Seg_G*%
X97000000Y-64292500D03*
%TD*%
D14*
%TO.P,D56,1,K*%
%TO.N,Net-(D55-Pad1)*%
X96000000Y-67877500D03*
%TO.P,D56,2,A*%
%TO.N,Seg_E*%
X96000000Y-66907500D03*
%TD*%
D10*
%TO.P,D34,1,K*%
%TO.N,Net-(D34-Pad1)*%
X85000000Y-68815000D03*
%TO.P,D34,2,A*%
%TO.N,Seg_E*%
X85000000Y-69785000D03*
%TD*%
D12*
%TO.P,R12,1*%
%TO.N,Net-(D34-Pad1)*%
X84000000Y-65410000D03*
%TO.P,R12,2*%
%TO.N,Net-(Q2-Pad3)*%
X84000000Y-64390000D03*
%TD*%
D11*
%TO.P,D63,1,K*%
%TO.N,Net-(D61-Pad1)*%
X101785000Y-64292500D03*
%TO.P,D63,2,A*%
%TO.N,Seg_G*%
X100815000Y-64292500D03*
%TD*%
%TO.P,D42,1,K*%
%TO.N,Net-(D40-Pad1)*%
X90785000Y-64292500D03*
%TO.P,D42,2,A*%
%TO.N,Seg_G*%
X89815000Y-64292500D03*
%TD*%
D14*
%TO.P,D50,1,K*%
%TO.N,Net-(D49-Pad1)*%
X102800000Y-67877500D03*
%TO.P,D50,2,A*%
%TO.N,Seg_C*%
X102800000Y-66907500D03*
%TD*%
D13*
%TO.P,R8,1*%
%TO.N,Net-(D22-Pad1)*%
X86260000Y-57000000D03*
%TO.P,R8,2*%
%TO.N,Net-(Q2-Pad3)*%
X85240000Y-57000000D03*
%TD*%
%TO.P,R28,1*%
%TO.N,Net-(D82-Pad1)*%
X109010000Y-65300000D03*
%TO.P,R28,2*%
%TO.N,Net-(Q4-Pad3)*%
X107990000Y-65300000D03*
%TD*%
D12*
%TO.P,R5,1*%
%TO.N,Net-(D13-Pad1)*%
X73000000Y-65410000D03*
%TO.P,R5,2*%
%TO.N,Net-(Q1-Pad3)*%
X73000000Y-64390000D03*
%TD*%
D11*
%TO.P,D31,1,K*%
%TO.N,Net-(D31-Pad1)*%
X90785000Y-70500000D03*
%TO.P,D31,2,A*%
%TO.N,Seg_D*%
X89815000Y-70500000D03*
%TD*%
D10*
%TO.P,D4,1,K*%
%TO.N,Net-(D4-Pad1)*%
X80800000Y-58907500D03*
%TO.P,D4,2,A*%
%TO.N,Seg_B*%
X80800000Y-59877500D03*
%TD*%
D12*
%TO.P,R13,1*%
%TO.N,Net-(D37-Pad1)*%
X84000000Y-58510000D03*
%TO.P,R13,2*%
%TO.N,Net-(Q2-Pad3)*%
X84000000Y-57490000D03*
%TD*%
D11*
%TO.P,D1,1,K*%
%TO.N,Net-(D1-Pad1)*%
X75970000Y-58200000D03*
%TO.P,D1,2,A*%
%TO.N,Seg_A*%
X75000000Y-58200000D03*
%TD*%
%TO.P,D24,1,K*%
%TO.N,Net-(D22-Pad1)*%
X90785000Y-58200000D03*
%TO.P,D24,2,A*%
%TO.N,Seg_A*%
X89815000Y-58200000D03*
%TD*%
D15*
%TO.P,R16,1*%
%TO.N,Net-(D46-Pad1)*%
X103800000Y-63190000D03*
%TO.P,R16,2*%
%TO.N,Net-(Q3-Pad3)*%
X103800000Y-64210000D03*
%TD*%
%TO.P,R2,1*%
%TO.N,Net-(D4-Pad1)*%
X81800000Y-63190000D03*
%TO.P,R2,2*%
%TO.N,Net-(Q1-Pad3)*%
X81800000Y-64210000D03*
%TD*%
D10*
%TO.P,D76,1,K*%
%TO.N,Net-(D76-Pad1)*%
X107000000Y-68815000D03*
%TO.P,D76,2,A*%
%TO.N,Seg_E*%
X107000000Y-69785000D03*
%TD*%
%TO.P,D72,1,K*%
%TO.N,Net-(D70-Pad1)*%
X113800000Y-68815000D03*
%TO.P,D72,2,A*%
%TO.N,Seg_C*%
X113800000Y-69785000D03*
%TD*%
D11*
%TO.P,D54,1,K*%
%TO.N,Net-(D52-Pad1)*%
X97970000Y-70500000D03*
%TO.P,D54,2,A*%
%TO.N,Seg_D*%
X97000000Y-70500000D03*
%TD*%
D15*
%TO.P,R3,1*%
%TO.N,Net-(D7-Pad1)*%
X81800000Y-69490000D03*
%TO.P,R3,2*%
%TO.N,Net-(Q1-Pad3)*%
X81800000Y-70510000D03*
%TD*%
D10*
%TO.P,D9,1,K*%
%TO.N,Net-(D7-Pad1)*%
X80800000Y-68815000D03*
%TO.P,D9,2,A*%
%TO.N,Seg_C*%
X80800000Y-69785000D03*
%TD*%
D16*
%TO.P,D20,1,K*%
%TO.N,Net-(D19-Pad1)*%
X76907500Y-64292500D03*
%TO.P,D20,2,A*%
%TO.N,Seg_G*%
X77877500Y-64292500D03*
%TD*%
D11*
%TO.P,D40,1,K*%
%TO.N,Net-(D40-Pad1)*%
X86970000Y-64292500D03*
%TO.P,D40,2,A*%
%TO.N,Seg_G*%
X86000000Y-64292500D03*
%TD*%
%TO.P,D84,1,K*%
%TO.N,Net-(D82-Pad1)*%
X112785000Y-64292500D03*
%TO.P,D84,2,A*%
%TO.N,Seg_G*%
X111815000Y-64292500D03*
%TD*%
%TO.P,D45,1,K*%
%TO.N,Net-(D43-Pad1)*%
X101785000Y-58200000D03*
%TO.P,D45,2,A*%
%TO.N,Seg_A*%
X100815000Y-58200000D03*
%TD*%
D16*
%TO.P,D53,1,K*%
%TO.N,Net-(D52-Pad1)*%
X98907500Y-70500000D03*
%TO.P,D53,2,A*%
%TO.N,Seg_D*%
X99877500Y-70500000D03*
%TD*%
D15*
%TO.P,R24,1*%
%TO.N,Net-(D70-Pad1)*%
X114800000Y-69490000D03*
%TO.P,R24,2*%
%TO.N,Net-(Q4-Pad3)*%
X114800000Y-70510000D03*
%TD*%
D16*
%TO.P,D2,1,K*%
%TO.N,Net-(D1-Pad1)*%
X76907500Y-58200000D03*
%TO.P,D2,2,A*%
%TO.N,Seg_A*%
X77877500Y-58200000D03*
%TD*%
%TO.P,D11,1,K*%
%TO.N,Net-(D10-Pad1)*%
X76907500Y-70500000D03*
%TO.P,D11,2,A*%
%TO.N,Seg_D*%
X77877500Y-70500000D03*
%TD*%
D17*
%TO.P,J1,1,Pin_1*%
%TO.N,N_0*%
X87000000Y-74750000D03*
D18*
%TO.P,J1,2,Pin_2*%
%TO.N,N_1*%
X89540000Y-74750000D03*
%TO.P,J1,3,Pin_3*%
%TO.N,N_2*%
X92080000Y-74750000D03*
%TO.P,J1,4,Pin_4*%
%TO.N,N_3*%
X94620000Y-74750000D03*
%TO.P,J1,5,Pin_5*%
%TO.N,GND*%
X97160000Y-74750000D03*
%TD*%
D10*
%TO.P,D60,1,K*%
%TO.N,Net-(D58-Pad1)*%
X96000000Y-58907500D03*
%TO.P,D60,2,A*%
%TO.N,Seg_F*%
X96000000Y-59877500D03*
%TD*%
D11*
%TO.P,D52,1,K*%
%TO.N,Net-(D52-Pad1)*%
X101785000Y-70500000D03*
%TO.P,D52,2,A*%
%TO.N,Seg_D*%
X100815000Y-70500000D03*
%TD*%
D14*
%TO.P,D26,1,K*%
%TO.N,Net-(D25-Pad1)*%
X91800000Y-61785000D03*
%TO.P,D26,2,A*%
%TO.N,Seg_B*%
X91800000Y-60815000D03*
%TD*%
D15*
%TO.P,R17,1*%
%TO.N,Net-(D49-Pad1)*%
X103800000Y-69490000D03*
%TO.P,R17,2*%
%TO.N,Net-(Q3-Pad3)*%
X103800000Y-70510000D03*
%TD*%
D10*
%TO.P,D30,1,K*%
%TO.N,Net-(D28-Pad1)*%
X91800000Y-68815000D03*
%TO.P,D30,2,A*%
%TO.N,Seg_C*%
X91800000Y-69785000D03*
%TD*%
%TO.P,D57,1,K*%
%TO.N,Net-(D55-Pad1)*%
X96000000Y-65000000D03*
%TO.P,D57,2,A*%
%TO.N,Seg_E*%
X96000000Y-65970000D03*
%TD*%
D13*
%TO.P,R18,1*%
%TO.N,Net-(D52-Pad1)*%
X97310000Y-71500000D03*
%TO.P,R18,2*%
%TO.N,Net-(Q3-Pad3)*%
X96290000Y-71500000D03*
%TD*%
D14*
%TO.P,D35,1,K*%
%TO.N,Net-(D34-Pad1)*%
X85000000Y-67877500D03*
%TO.P,D35,2,A*%
%TO.N,Seg_E*%
X85000000Y-66907500D03*
%TD*%
D11*
%TO.P,D75,1,K*%
%TO.N,Net-(D73-Pad1)*%
X108970000Y-70500000D03*
%TO.P,D75,2,A*%
%TO.N,Seg_D*%
X108000000Y-70500000D03*
%TD*%
%TO.P,D10,1,K*%
%TO.N,Net-(D10-Pad1)*%
X79785000Y-70500000D03*
%TO.P,D10,2,A*%
%TO.N,Seg_D*%
X78815000Y-70500000D03*
%TD*%
D16*
%TO.P,D74,1,K*%
%TO.N,Net-(D73-Pad1)*%
X109907500Y-70500000D03*
%TO.P,D74,2,A*%
%TO.N,Seg_D*%
X110877500Y-70500000D03*
%TD*%
D10*
%TO.P,D27,1,K*%
%TO.N,Net-(D25-Pad1)*%
X91800000Y-62722500D03*
%TO.P,D27,2,A*%
%TO.N,Seg_B*%
X91800000Y-63692500D03*
%TD*%
D17*
%TO.P,J2,1,Pin_1*%
%TO.N,Seg_A*%
X118250000Y-57500000D03*
D18*
%TO.P,J2,2,Pin_2*%
%TO.N,Seg_F*%
X118250000Y-60040000D03*
%TO.P,J2,3,Pin_3*%
%TO.N,Seg_B*%
X118250000Y-62580000D03*
%TO.P,J2,4,Pin_4*%
%TO.N,Seg_G*%
X118250000Y-65120000D03*
%TO.P,J2,5,Pin_5*%
%TO.N,Seg_C*%
X118250000Y-67660000D03*
%TO.P,J2,6,Pin_6*%
%TO.N,Seg_E*%
X118250000Y-70200000D03*
%TO.P,J2,7,Pin_7*%
%TO.N,Seg_D*%
X118250000Y-72740000D03*
%TD*%
D12*
%TO.P,R20,1*%
%TO.N,Net-(D58-Pad1)*%
X95000000Y-58510000D03*
%TO.P,R20,2*%
%TO.N,Net-(Q3-Pad3)*%
X95000000Y-57490000D03*
%TD*%
D13*
%TO.P,R22,1*%
%TO.N,Net-(D64-Pad1)*%
X108260000Y-57000000D03*
%TO.P,R22,2*%
%TO.N,Net-(Q4-Pad3)*%
X107240000Y-57000000D03*
%TD*%
D10*
%TO.P,D49,1,K*%
%TO.N,Net-(D49-Pad1)*%
X102800000Y-65000000D03*
%TO.P,D49,2,A*%
%TO.N,Seg_C*%
X102800000Y-65970000D03*
%TD*%
D13*
%TO.P,R15,1*%
%TO.N,Net-(D43-Pad1)*%
X97260000Y-57000000D03*
%TO.P,R15,2*%
%TO.N,Net-(Q3-Pad3)*%
X96240000Y-57000000D03*
%TD*%
D11*
%TO.P,D12,1,K*%
%TO.N,Net-(D10-Pad1)*%
X75970000Y-70500000D03*
%TO.P,D12,2,A*%
%TO.N,Seg_D*%
X75000000Y-70500000D03*
%TD*%
D10*
%TO.P,D15,1,K*%
%TO.N,Net-(D13-Pad1)*%
X74000000Y-65000000D03*
%TO.P,D15,2,A*%
%TO.N,Seg_E*%
X74000000Y-65970000D03*
%TD*%
D16*
%TO.P,D65,1,K*%
%TO.N,Net-(D64-Pad1)*%
X109907500Y-58200000D03*
%TO.P,D65,2,A*%
%TO.N,Seg_A*%
X110877500Y-58200000D03*
%TD*%
D11*
%TO.P,D22,1,K*%
%TO.N,Net-(D22-Pad1)*%
X86970000Y-58200000D03*
%TO.P,D22,2,A*%
%TO.N,Seg_A*%
X86000000Y-58200000D03*
%TD*%
D13*
%TO.P,R14,1*%
%TO.N,Net-(D40-Pad1)*%
X87010000Y-65300000D03*
%TO.P,R14,2*%
%TO.N,Net-(Q2-Pad3)*%
X85990000Y-65300000D03*
%TD*%
D10*
%TO.P,D37,1,K*%
%TO.N,Net-(D37-Pad1)*%
X85000000Y-62722500D03*
%TO.P,D37,2,A*%
%TO.N,Seg_F*%
X85000000Y-63692500D03*
%TD*%
%TO.P,D79,1,K*%
%TO.N,Net-(D79-Pad1)*%
X107000000Y-62722500D03*
%TO.P,D79,2,A*%
%TO.N,Seg_F*%
X107000000Y-63692500D03*
%TD*%
D13*
%TO.P,R4,1*%
%TO.N,Net-(D10-Pad1)*%
X75310000Y-71500000D03*
%TO.P,R4,2*%
%TO.N,Net-(Q1-Pad3)*%
X74290000Y-71500000D03*
%TD*%
D16*
%TO.P,D44,1,K*%
%TO.N,Net-(D43-Pad1)*%
X98907500Y-58200000D03*
%TO.P,D44,2,A*%
%TO.N,Seg_A*%
X99877500Y-58200000D03*
%TD*%
D14*
%TO.P,D68,1,K*%
%TO.N,Net-(D67-Pad1)*%
X113800000Y-61785000D03*
%TO.P,D68,2,A*%
%TO.N,Seg_B*%
X113800000Y-60815000D03*
%TD*%
D15*
%TO.P,R10,1*%
%TO.N,Net-(D28-Pad1)*%
X92800000Y-69490000D03*
%TO.P,R10,2*%
%TO.N,Net-(Q2-Pad3)*%
X92800000Y-70510000D03*
%TD*%
D11*
%TO.P,D82,1,K*%
%TO.N,Net-(D82-Pad1)*%
X108970000Y-64292500D03*
%TO.P,D82,2,A*%
%TO.N,Seg_G*%
X108000000Y-64292500D03*
%TD*%
D14*
%TO.P,D77,1,K*%
%TO.N,Net-(D76-Pad1)*%
X107000000Y-67877500D03*
%TO.P,D77,2,A*%
%TO.N,Seg_E*%
X107000000Y-66907500D03*
%TD*%
D11*
%TO.P,D19,1,K*%
%TO.N,Net-(D19-Pad1)*%
X75970000Y-64292500D03*
%TO.P,D19,2,A*%
%TO.N,Seg_G*%
X75000000Y-64292500D03*
%TD*%
%TO.P,D33,1,K*%
%TO.N,Net-(D31-Pad1)*%
X86970000Y-70500000D03*
%TO.P,D33,2,A*%
%TO.N,Seg_D*%
X86000000Y-70500000D03*
%TD*%
D13*
%TO.P,R21,1*%
%TO.N,Net-(D61-Pad1)*%
X98010000Y-65300000D03*
%TO.P,R21,2*%
%TO.N,Net-(Q3-Pad3)*%
X96990000Y-65300000D03*
%TD*%
D10*
%TO.P,D13,1,K*%
%TO.N,Net-(D13-Pad1)*%
X74000000Y-68815000D03*
%TO.P,D13,2,A*%
%TO.N,Seg_E*%
X74000000Y-69785000D03*
%TD*%
%TO.P,D78,1,K*%
%TO.N,Net-(D76-Pad1)*%
X107000000Y-65000000D03*
%TO.P,D78,2,A*%
%TO.N,Seg_E*%
X107000000Y-65970000D03*
%TD*%
D14*
%TO.P,D71,1,K*%
%TO.N,Net-(D70-Pad1)*%
X113800000Y-67877500D03*
%TO.P,D71,2,A*%
%TO.N,Seg_C*%
X113800000Y-66907500D03*
%TD*%
D11*
%TO.P,D64,1,K*%
%TO.N,Net-(D64-Pad1)*%
X108970000Y-58200000D03*
%TO.P,D64,2,A*%
%TO.N,Seg_A*%
X108000000Y-58200000D03*
%TD*%
D16*
%TO.P,D23,1,K*%
%TO.N,Net-(D22-Pad1)*%
X87907500Y-58200000D03*
%TO.P,D23,2,A*%
%TO.N,Seg_A*%
X88877500Y-58200000D03*
%TD*%
D10*
%TO.P,D55,1,K*%
%TO.N,Net-(D55-Pad1)*%
X96000000Y-68815000D03*
%TO.P,D55,2,A*%
%TO.N,Seg_E*%
X96000000Y-69785000D03*
%TD*%
D14*
%TO.P,D47,1,K*%
%TO.N,Net-(D46-Pad1)*%
X102800000Y-61785000D03*
%TO.P,D47,2,A*%
%TO.N,Seg_B*%
X102800000Y-60815000D03*
%TD*%
D16*
%TO.P,D41,1,K*%
%TO.N,Net-(D40-Pad1)*%
X87907500Y-64292500D03*
%TO.P,D41,2,A*%
%TO.N,Seg_G*%
X88877500Y-64292500D03*
%TD*%
D10*
%TO.P,D36,1,K*%
%TO.N,Net-(D34-Pad1)*%
X85000000Y-65000000D03*
%TO.P,D36,2,A*%
%TO.N,Seg_E*%
X85000000Y-65970000D03*
%TD*%
D16*
%TO.P,D32,1,K*%
%TO.N,Net-(D31-Pad1)*%
X87907500Y-70500000D03*
%TO.P,D32,2,A*%
%TO.N,Seg_D*%
X88877500Y-70500000D03*
%TD*%
D15*
%TO.P,R23,1*%
%TO.N,Net-(D67-Pad1)*%
X114800000Y-63190000D03*
%TO.P,R23,2*%
%TO.N,Net-(Q4-Pad3)*%
X114800000Y-64210000D03*
%TD*%
D12*
%TO.P,R27,1*%
%TO.N,Net-(D79-Pad1)*%
X106000000Y-58510000D03*
%TO.P,R27,2*%
%TO.N,Net-(Q4-Pad3)*%
X106000000Y-57490000D03*
%TD*%
D11*
%TO.P,D43,1,K*%
%TO.N,Net-(D43-Pad1)*%
X97970000Y-58200000D03*
%TO.P,D43,2,A*%
%TO.N,Seg_A*%
X97000000Y-58200000D03*
%TD*%
D13*
%TO.P,R11,1*%
%TO.N,Net-(D31-Pad1)*%
X86310000Y-71500000D03*
%TO.P,R11,2*%
%TO.N,Net-(Q2-Pad3)*%
X85290000Y-71500000D03*
%TD*%
D19*
%TO.N,Seg_A*%
X108500000Y-59250000D03*
X75500000Y-59250000D03*
X97500000Y-59250000D03*
X86500000Y-59250000D03*
%TO.N,Seg_B*%
X89500000Y-61250000D03*
X100500000Y-61250000D03*
X111500000Y-61250000D03*
X78500000Y-61250000D03*
%TO.N,Seg_C*%
X88750000Y-67000000D03*
X77750000Y-67000000D03*
X99750000Y-67000000D03*
X110750000Y-67000000D03*
%TO.N,Seg_D*%
X77250000Y-69250000D03*
X110250000Y-69250000D03*
X88250000Y-69250000D03*
X99250000Y-69250000D03*
%TO.N,Seg_E*%
X75750000Y-68250000D03*
X108750000Y-68250000D03*
X86750000Y-68250000D03*
X97750000Y-68250000D03*
%TO.N,Seg_F*%
X95000000Y-60250000D03*
X73000000Y-60250000D03*
X84000000Y-60250000D03*
X106000000Y-60250000D03*
%TO.N,Seg_G*%
X98250000Y-62500000D03*
X87250000Y-62500000D03*
X76250000Y-62500000D03*
X109250000Y-62500000D03*
%TO.N,GND*%
X92750000Y-56500000D03*
X71250000Y-66750000D03*
X81500000Y-56500000D03*
X103750000Y-73250000D03*
X104000000Y-56750000D03*
X71750000Y-72000000D03*
X114500000Y-73250000D03*
X71500000Y-59000000D03*
X82000000Y-73500000D03*
X113250000Y-56250000D03*
%TO.N,Net-(Q1-Pad3)*%
X75250000Y-66250000D03*
X72000000Y-64000000D03*
X73500000Y-72000000D03*
%TO.N,Net-(Q2-Pad3)*%
X83000000Y-64000000D03*
X84500000Y-72000000D03*
X86250000Y-66250000D03*
%TO.N,Net-(Q3-Pad3)*%
X95250000Y-72250000D03*
X94000000Y-64000000D03*
X97250000Y-66250000D03*
%TO.N,Net-(Q4-Pad3)*%
X105000000Y-64000000D03*
X106250000Y-72250000D03*
X108250000Y-66250000D03*
%TD*%
D20*
%TO.N,Net-(D1-Pad1)*%
X75970000Y-57710000D02*
X75970000Y-58200000D01*
X77534483Y-57555480D02*
X79158017Y-57555480D01*
X75260000Y-57000000D02*
X75970000Y-57710000D01*
X76907500Y-58182463D02*
X77534483Y-57555480D01*
X76907500Y-58200000D02*
X76907500Y-58182463D01*
X75970000Y-58200000D02*
X76907500Y-58200000D01*
X79785000Y-58182463D02*
X79785000Y-58200000D01*
X79158017Y-57555480D02*
X79785000Y-58182463D01*
%TO.N,Seg_A*%
X77877500Y-58200000D02*
X77877500Y-58217537D01*
X86000000Y-58200000D02*
X86000000Y-58750000D01*
X78815000Y-58200000D02*
X77877500Y-58200000D01*
X99877500Y-58200000D02*
X99877500Y-58217537D01*
X108000000Y-58750000D02*
X108500000Y-59250000D01*
X108000000Y-58200000D02*
X108000000Y-58750000D01*
X77877500Y-58217537D02*
X76845037Y-59250000D01*
X86000000Y-58750000D02*
X86500000Y-59250000D01*
X88877500Y-58200000D02*
X88877500Y-58217537D01*
X100815000Y-58200000D02*
X99877500Y-58200000D01*
X76845037Y-59250000D02*
X75500000Y-59250000D01*
X75000000Y-58200000D02*
X75000000Y-58750000D01*
X111815000Y-58200000D02*
X110877500Y-58200000D01*
X109845037Y-59250000D02*
X108500000Y-59250000D01*
X89815000Y-58200000D02*
X88877500Y-58200000D01*
X98845037Y-59250000D02*
X97500000Y-59250000D01*
X97000000Y-58750000D02*
X97500000Y-59250000D01*
X110877500Y-58217537D02*
X109845037Y-59250000D01*
X110877500Y-58200000D02*
X110877500Y-58217537D01*
X87845037Y-59250000D02*
X86500000Y-59250000D01*
X88877500Y-58217537D02*
X87845037Y-59250000D01*
X99877500Y-58217537D02*
X98845037Y-59250000D01*
X75000000Y-58750000D02*
X75500000Y-59250000D01*
X97000000Y-58200000D02*
X97000000Y-58750000D01*
%TO.N,Net-(D10-Pad1)*%
X75970000Y-70500000D02*
X76907500Y-70500000D01*
X75970000Y-70840000D02*
X75310000Y-71500000D01*
X79785000Y-70715000D02*
X79250000Y-71250000D01*
X76907500Y-70517537D02*
X76907500Y-70500000D01*
X75970000Y-70500000D02*
X75970000Y-70840000D01*
X79250000Y-71250000D02*
X77639963Y-71250000D01*
X77639963Y-71250000D02*
X76907500Y-70517537D01*
X79785000Y-70500000D02*
X79785000Y-70715000D01*
%TO.N,Net-(D13-Pad1)*%
X74000000Y-67877500D02*
X73982463Y-67877500D01*
X73982463Y-67877500D02*
X73000000Y-66895037D01*
X73590000Y-65410000D02*
X74000000Y-65000000D01*
X73000000Y-66895037D02*
X73000000Y-65410000D01*
X73000000Y-65410000D02*
X73590000Y-65410000D01*
X74000000Y-68815000D02*
X74000000Y-67877500D01*
%TO.N,Seg_B*%
X113800000Y-63692500D02*
X113692500Y-63692500D01*
X113685000Y-60815000D02*
X113800000Y-60815000D01*
X80800000Y-63692500D02*
X80692500Y-63692500D01*
X113155480Y-63155480D02*
X113155480Y-61344520D01*
X91800000Y-60815000D02*
X91800000Y-59877500D01*
X111935000Y-60815000D02*
X113800000Y-60815000D01*
X91685000Y-60815000D02*
X91800000Y-60815000D01*
X89500000Y-61250000D02*
X89935000Y-60815000D01*
X102155480Y-63155480D02*
X102155480Y-61344520D01*
X113692500Y-63692500D02*
X113155480Y-63155480D01*
X91800000Y-63692500D02*
X91692500Y-63692500D01*
X91155480Y-63155480D02*
X91155480Y-61344520D01*
X102692500Y-63692500D02*
X102155480Y-63155480D01*
X111500000Y-61250000D02*
X111935000Y-60815000D01*
X80685000Y-60815000D02*
X80800000Y-60815000D01*
X102685000Y-60815000D02*
X102800000Y-60815000D01*
X89935000Y-60815000D02*
X91800000Y-60815000D01*
X80155480Y-63155480D02*
X80155480Y-61344520D01*
X78935000Y-60815000D02*
X80800000Y-60815000D01*
X113800000Y-60815000D02*
X113800000Y-59877500D01*
X100500000Y-61250000D02*
X100935000Y-60815000D01*
X80155480Y-61344520D02*
X80685000Y-60815000D01*
X91155480Y-61344520D02*
X91685000Y-60815000D01*
X100935000Y-60815000D02*
X102800000Y-60815000D01*
X80692500Y-63692500D02*
X80155480Y-63155480D01*
X102800000Y-63692500D02*
X102692500Y-63692500D01*
X78500000Y-61250000D02*
X78935000Y-60815000D01*
X91692500Y-63692500D02*
X91155480Y-63155480D01*
X80800000Y-60815000D02*
X80800000Y-59877500D01*
X102800000Y-60815000D02*
X102800000Y-59877500D01*
X113155480Y-61344520D02*
X113685000Y-60815000D01*
X102155480Y-61344520D02*
X102685000Y-60815000D01*
%TO.N,Net-(D16-Pad1)*%
X74750000Y-61052537D02*
X74750000Y-59500000D01*
X74750000Y-59500000D02*
X74157500Y-58907500D01*
X74000000Y-58907500D02*
X73397500Y-58907500D01*
X74000000Y-61785000D02*
X74017537Y-61785000D01*
X74157500Y-58907500D02*
X74000000Y-58907500D01*
X73397500Y-58907500D02*
X73000000Y-58510000D01*
X74000000Y-62722500D02*
X74000000Y-61785000D01*
X74017537Y-61785000D02*
X74750000Y-61052537D01*
%TO.N,Net-(D25-Pad1)*%
X91800000Y-62722500D02*
X92332500Y-62722500D01*
X92332500Y-62722500D02*
X92800000Y-63190000D01*
X91817537Y-58907500D02*
X92444520Y-59534483D01*
X91817537Y-61785000D02*
X91800000Y-61785000D01*
X91800000Y-62722500D02*
X91800000Y-61785000D01*
X92444520Y-59534483D02*
X92444520Y-61158017D01*
X92444520Y-61158017D02*
X91817537Y-61785000D01*
X91800000Y-58907500D02*
X91817537Y-58907500D01*
%TO.N,Seg_C*%
X102155480Y-69158017D02*
X102155480Y-67344520D01*
X100780000Y-65970000D02*
X102800000Y-65970000D01*
X113155480Y-67344520D02*
X113592500Y-66907500D01*
X89780000Y-65970000D02*
X91800000Y-65970000D01*
X91800000Y-66907500D02*
X91800000Y-65970000D01*
X91782463Y-69785000D02*
X91155480Y-69158017D01*
X102800000Y-66907500D02*
X102800000Y-65970000D01*
X102592500Y-66907500D02*
X102800000Y-66907500D01*
X78780000Y-65970000D02*
X80800000Y-65970000D01*
X113592500Y-66907500D02*
X113800000Y-66907500D01*
X80800000Y-69785000D02*
X80782463Y-69785000D01*
X80592500Y-66907500D02*
X80800000Y-66907500D01*
X80800000Y-66907500D02*
X80800000Y-65970000D01*
X110750000Y-67000000D02*
X111780000Y-65970000D01*
X91592500Y-66907500D02*
X91800000Y-66907500D01*
X80782463Y-69785000D02*
X80155480Y-69158017D01*
X99750000Y-67000000D02*
X100780000Y-65970000D01*
X111780000Y-65970000D02*
X113800000Y-65970000D01*
X102800000Y-69785000D02*
X102782463Y-69785000D01*
X80155480Y-69158017D02*
X80155480Y-67344520D01*
X102155480Y-67344520D02*
X102592500Y-66907500D01*
X91155480Y-67344520D02*
X91592500Y-66907500D01*
X113800000Y-66907500D02*
X113800000Y-65970000D01*
X88750000Y-67000000D02*
X89780000Y-65970000D01*
X91155480Y-69158017D02*
X91155480Y-67344520D01*
X113782463Y-69785000D02*
X113155480Y-69158017D01*
X113155480Y-69158017D02*
X113155480Y-67344520D01*
X80155480Y-67344520D02*
X80592500Y-66907500D01*
X102782463Y-69785000D02*
X102155480Y-69158017D01*
X91800000Y-69785000D02*
X91782463Y-69785000D01*
X113800000Y-69785000D02*
X113782463Y-69785000D01*
X77750000Y-67000000D02*
X78780000Y-65970000D01*
%TO.N,Net-(D28-Pad1)*%
X91817537Y-67877500D02*
X92444520Y-67250517D01*
X92444520Y-67250517D02*
X92444520Y-65444520D01*
X92444520Y-65444520D02*
X92000000Y-65000000D01*
X92125000Y-68815000D02*
X92800000Y-69490000D01*
X92000000Y-65000000D02*
X91800000Y-65000000D01*
X91800000Y-68815000D02*
X92125000Y-68815000D01*
X91800000Y-67877500D02*
X91817537Y-67877500D01*
X91800000Y-68815000D02*
X91800000Y-67877500D01*
%TO.N,Net-(D37-Pad1)*%
X85000000Y-58907500D02*
X84397500Y-58907500D01*
X85750000Y-61052537D02*
X85750000Y-59500000D01*
X85000000Y-62722500D02*
X85000000Y-61785000D01*
X85157500Y-58907500D02*
X85000000Y-58907500D01*
X85017537Y-61785000D02*
X85750000Y-61052537D01*
X85000000Y-61785000D02*
X85017537Y-61785000D01*
X85750000Y-59500000D02*
X85157500Y-58907500D01*
X84397500Y-58907500D02*
X84000000Y-58510000D01*
%TO.N,Seg_D*%
X99877500Y-70500000D02*
X100815000Y-70500000D01*
X110877500Y-70500000D02*
X111815000Y-70500000D01*
X88250000Y-69250000D02*
X88877500Y-69877500D01*
X75626983Y-69855480D02*
X77250517Y-69855480D01*
X108626983Y-69855480D02*
X110250517Y-69855480D01*
X110877500Y-70482463D02*
X110877500Y-70500000D01*
X110877500Y-69877500D02*
X110877500Y-70500000D01*
X97626983Y-69855480D02*
X99250517Y-69855480D01*
X99250517Y-69855480D02*
X99877500Y-70482463D01*
X88877500Y-70500000D02*
X89815000Y-70500000D01*
X75000000Y-70482463D02*
X75626983Y-69855480D01*
X88877500Y-70482463D02*
X88877500Y-70500000D01*
X86000000Y-70482463D02*
X86626983Y-69855480D01*
X86000000Y-70500000D02*
X86000000Y-70482463D01*
X77250000Y-69250000D02*
X77877500Y-69877500D01*
X110250000Y-69250000D02*
X110877500Y-69877500D01*
X108000000Y-70482463D02*
X108626983Y-69855480D01*
X77877500Y-70500000D02*
X78815000Y-70500000D01*
X99877500Y-69877500D02*
X99877500Y-70500000D01*
X97000000Y-70482463D02*
X97626983Y-69855480D01*
X88250517Y-69855480D02*
X88877500Y-70482463D01*
X108000000Y-70500000D02*
X108000000Y-70482463D01*
X77877500Y-69877500D02*
X77877500Y-70500000D01*
X110250517Y-69855480D02*
X110877500Y-70482463D01*
X97000000Y-70500000D02*
X97000000Y-70482463D01*
X77250517Y-69855480D02*
X77877500Y-70482463D01*
X77877500Y-70482463D02*
X77877500Y-70500000D01*
X75000000Y-70500000D02*
X75000000Y-70482463D01*
X99250000Y-69250000D02*
X99877500Y-69877500D01*
X86626983Y-69855480D02*
X88250517Y-69855480D01*
X99877500Y-70482463D02*
X99877500Y-70500000D01*
X88877500Y-69877500D02*
X88877500Y-70500000D01*
%TO.N,Net-(D40-Pad1)*%
X86970000Y-64292500D02*
X86970000Y-65260000D01*
X90785000Y-64310037D02*
X90158017Y-64937020D01*
X86970000Y-65260000D02*
X87010000Y-65300000D01*
X90785000Y-64292500D02*
X90785000Y-64310037D01*
X90158017Y-64937020D02*
X88534483Y-64937020D01*
X87907500Y-64310037D02*
X87907500Y-64292500D01*
X86970000Y-64292500D02*
X87907500Y-64292500D01*
X88534483Y-64937020D02*
X87907500Y-64310037D01*
%TO.N,Net-(D49-Pad1)*%
X103444520Y-65444520D02*
X103000000Y-65000000D01*
X103444520Y-67250517D02*
X103444520Y-65444520D01*
X102800000Y-67877500D02*
X102817537Y-67877500D01*
X102800000Y-68815000D02*
X103125000Y-68815000D01*
X103125000Y-68815000D02*
X103800000Y-69490000D01*
X102817537Y-67877500D02*
X103444520Y-67250517D01*
X102800000Y-68815000D02*
X102800000Y-67877500D01*
X103000000Y-65000000D02*
X102800000Y-65000000D01*
%TO.N,Seg_E*%
X107750000Y-69250000D02*
X107215000Y-69785000D01*
X74000000Y-65970000D02*
X74000000Y-66907500D01*
X86750000Y-68250000D02*
X86139963Y-67639963D01*
X96750000Y-67639963D02*
X96750000Y-69250000D01*
X108139963Y-67639963D02*
X107750000Y-67639963D01*
X108750000Y-68250000D02*
X108139963Y-67639963D01*
X97139963Y-67639963D02*
X96750000Y-67639963D01*
X96000000Y-65970000D02*
X96000000Y-66907500D01*
X75139963Y-67639963D02*
X74750000Y-67639963D01*
X85750000Y-67639963D02*
X85750000Y-69250000D01*
X74017537Y-66907500D02*
X74750000Y-67639963D01*
X74000000Y-66907500D02*
X74017537Y-66907500D01*
X85215000Y-69785000D02*
X85000000Y-69785000D01*
X96215000Y-69785000D02*
X96000000Y-69785000D01*
X107017537Y-66907500D02*
X107750000Y-67639963D01*
X86139963Y-67639963D02*
X85750000Y-67639963D01*
X85000000Y-65970000D02*
X85000000Y-66907500D01*
X107000000Y-66907500D02*
X107017537Y-66907500D01*
X85750000Y-69250000D02*
X85215000Y-69785000D01*
X74750000Y-69250000D02*
X74215000Y-69785000D01*
X75750000Y-68250000D02*
X75139963Y-67639963D01*
X107750000Y-67639963D02*
X107750000Y-69250000D01*
X96017537Y-66907500D02*
X96750000Y-67639963D01*
X85000000Y-66907500D02*
X85017537Y-66907500D01*
X107215000Y-69785000D02*
X107000000Y-69785000D01*
X74750000Y-67639963D02*
X74750000Y-69250000D01*
X96750000Y-69250000D02*
X96215000Y-69785000D01*
X74215000Y-69785000D02*
X74000000Y-69785000D01*
X96000000Y-66907500D02*
X96017537Y-66907500D01*
X107000000Y-65970000D02*
X107000000Y-66907500D01*
X85017537Y-66907500D02*
X85750000Y-67639963D01*
X97750000Y-68250000D02*
X97139963Y-67639963D01*
%TO.N,Net-(D52-Pad1)*%
X99639963Y-71250000D02*
X98907500Y-70517537D01*
X97970000Y-70500000D02*
X97970000Y-70840000D01*
X101785000Y-70500000D02*
X101785000Y-70715000D01*
X97970000Y-70500000D02*
X98907500Y-70500000D01*
X101250000Y-71250000D02*
X99639963Y-71250000D01*
X98907500Y-70517537D02*
X98907500Y-70500000D01*
X97970000Y-70840000D02*
X97310000Y-71500000D01*
X101785000Y-70715000D02*
X101250000Y-71250000D01*
%TO.N,Net-(D61-Pad1)*%
X101785000Y-64292500D02*
X101785000Y-64310037D01*
X98907500Y-64310037D02*
X98907500Y-64292500D01*
X101785000Y-64310037D02*
X101158017Y-64937020D01*
X97970000Y-65260000D02*
X98010000Y-65300000D01*
X101158017Y-64937020D02*
X99534483Y-64937020D01*
X97970000Y-64292500D02*
X98907500Y-64292500D01*
X99534483Y-64937020D02*
X98907500Y-64310037D01*
X97970000Y-64292500D02*
X97970000Y-65260000D01*
%TO.N,Seg_F*%
X107000000Y-63692500D02*
X106942500Y-63692500D01*
X73000000Y-60250000D02*
X73372500Y-59877500D01*
X106355480Y-61394520D02*
X106935000Y-60815000D01*
X106935000Y-60815000D02*
X107000000Y-60815000D01*
X107000000Y-59877500D02*
X107000000Y-60815000D01*
X73355480Y-63105480D02*
X73355480Y-61394520D01*
X74000000Y-63692500D02*
X73942500Y-63692500D01*
X85000000Y-59877500D02*
X85000000Y-60815000D01*
X84355480Y-63105480D02*
X84355480Y-61394520D01*
X85000000Y-63692500D02*
X84942500Y-63692500D01*
X95355480Y-63105480D02*
X95355480Y-61394520D01*
X84000000Y-60250000D02*
X84372500Y-59877500D01*
X95000000Y-60250000D02*
X95372500Y-59877500D01*
X73942500Y-63692500D02*
X73355480Y-63105480D01*
X106942500Y-63692500D02*
X106355480Y-63105480D01*
X84355480Y-61394520D02*
X84935000Y-60815000D01*
X106355480Y-63105480D02*
X106355480Y-61394520D01*
X84935000Y-60815000D02*
X85000000Y-60815000D01*
X95355480Y-61394520D02*
X95935000Y-60815000D01*
X96000000Y-59877500D02*
X96000000Y-60815000D01*
X96000000Y-63692500D02*
X95942500Y-63692500D01*
X95372500Y-59877500D02*
X96000000Y-59877500D01*
X84942500Y-63692500D02*
X84355480Y-63105480D01*
X73372500Y-59877500D02*
X74000000Y-59877500D01*
X84372500Y-59877500D02*
X85000000Y-59877500D01*
X106372500Y-59877500D02*
X107000000Y-59877500D01*
X73355480Y-61394520D02*
X73935000Y-60815000D01*
X106000000Y-60250000D02*
X106372500Y-59877500D01*
X95942500Y-63692500D02*
X95355480Y-63105480D01*
X73935000Y-60815000D02*
X74000000Y-60815000D01*
X74000000Y-59877500D02*
X74000000Y-60815000D01*
X95935000Y-60815000D02*
X96000000Y-60815000D01*
%TO.N,Net-(D64-Pad1)*%
X112785000Y-58182463D02*
X112785000Y-58200000D01*
X108970000Y-57710000D02*
X108970000Y-58200000D01*
X110534483Y-57555480D02*
X112158017Y-57555480D01*
X112158017Y-57555480D02*
X112785000Y-58182463D01*
X108260000Y-57000000D02*
X108970000Y-57710000D01*
X109907500Y-58182463D02*
X110534483Y-57555480D01*
X108970000Y-58200000D02*
X109907500Y-58200000D01*
X109907500Y-58200000D02*
X109907500Y-58182463D01*
%TO.N,Net-(D73-Pad1)*%
X112785000Y-70715000D02*
X112250000Y-71250000D01*
X109907500Y-70517537D02*
X109907500Y-70500000D01*
X110639963Y-71250000D02*
X109907500Y-70517537D01*
X112250000Y-71250000D02*
X110639963Y-71250000D01*
X108970000Y-70500000D02*
X109907500Y-70500000D01*
X112785000Y-70500000D02*
X112785000Y-70715000D01*
X108970000Y-70500000D02*
X108970000Y-70840000D01*
X108970000Y-70840000D02*
X108310000Y-71500000D01*
%TO.N,Seg_G*%
X88250517Y-63647980D02*
X88877500Y-64274963D01*
X111815000Y-64292500D02*
X110877500Y-64292500D01*
X97000000Y-63750000D02*
X98250000Y-62500000D01*
X89815000Y-64292500D02*
X88877500Y-64292500D01*
X97000000Y-64292500D02*
X97000000Y-64274963D01*
X97626983Y-63647980D02*
X99250517Y-63647980D01*
X75000000Y-64292500D02*
X75000000Y-63750000D01*
X110250517Y-63647980D02*
X110877500Y-64274963D01*
X108000000Y-63750000D02*
X109250000Y-62500000D01*
X86000000Y-64292500D02*
X86000000Y-64274963D01*
X78815000Y-64292500D02*
X77877500Y-64292500D01*
X108626983Y-63647980D02*
X110250517Y-63647980D01*
X97000000Y-64274963D02*
X97626983Y-63647980D01*
X75000000Y-64292500D02*
X75000000Y-64274963D01*
X108000000Y-64274963D02*
X108626983Y-63647980D01*
X75626983Y-63647980D02*
X77250517Y-63647980D01*
X99877500Y-64274963D02*
X99877500Y-64292500D01*
X77250517Y-63647980D02*
X77877500Y-64274963D01*
X88877500Y-64274963D02*
X88877500Y-64292500D01*
X108000000Y-64292500D02*
X108000000Y-63750000D01*
X75000000Y-63750000D02*
X76250000Y-62500000D01*
X86626983Y-63647980D02*
X88250517Y-63647980D01*
X100815000Y-64292500D02*
X99877500Y-64292500D01*
X110877500Y-64274963D02*
X110877500Y-64292500D01*
X86000000Y-64274963D02*
X86626983Y-63647980D01*
X77877500Y-64274963D02*
X77877500Y-64292500D01*
X97000000Y-64292500D02*
X97000000Y-63750000D01*
X86000000Y-64292500D02*
X86000000Y-63750000D01*
X99250517Y-63647980D02*
X99877500Y-64274963D01*
X86000000Y-63750000D02*
X87250000Y-62500000D01*
X75000000Y-64274963D02*
X75626983Y-63647980D01*
X108000000Y-64292500D02*
X108000000Y-64274963D01*
%TO.N,Net-(D76-Pad1)*%
X106000000Y-66895037D02*
X106000000Y-65410000D01*
X106982463Y-67877500D02*
X106000000Y-66895037D01*
X106590000Y-65410000D02*
X107000000Y-65000000D01*
X107000000Y-67877500D02*
X106982463Y-67877500D01*
X107000000Y-68815000D02*
X107000000Y-67877500D01*
X106000000Y-65410000D02*
X106590000Y-65410000D01*
%TO.N,Net-(Q1-Pad3)*%
X73750000Y-57490000D02*
X74240000Y-57000000D01*
X74290000Y-71500000D02*
X72250000Y-69460000D01*
X72250000Y-69460000D02*
X72250000Y-65140000D01*
X82750000Y-66000000D02*
X82750000Y-69560000D01*
X73000000Y-64390000D02*
X73000000Y-63750000D01*
X74000000Y-71500000D02*
X73500000Y-72000000D01*
X72250000Y-58240000D02*
X73000000Y-57490000D01*
X81800000Y-65050000D02*
X82750000Y-66000000D01*
X74990000Y-65300000D02*
X74990000Y-65990000D01*
X82750000Y-69560000D02*
X81800000Y-70510000D01*
X74290000Y-71500000D02*
X74000000Y-71500000D01*
X75000000Y-72250000D02*
X80060000Y-72250000D01*
X74290000Y-71500000D02*
X74290000Y-71540000D01*
X72610000Y-64000000D02*
X73000000Y-64390000D01*
X73000000Y-57490000D02*
X73750000Y-57490000D01*
X74990000Y-65990000D02*
X75250000Y-66250000D01*
X72000000Y-64000000D02*
X72610000Y-64000000D01*
X72250000Y-65140000D02*
X73000000Y-64390000D01*
X72250000Y-63000000D02*
X72250000Y-58240000D01*
X74290000Y-71540000D02*
X75000000Y-72250000D01*
X81800000Y-64210000D02*
X81800000Y-65050000D01*
X73000000Y-63750000D02*
X72250000Y-63000000D01*
X80060000Y-72250000D02*
X81800000Y-70510000D01*
%TO.N,Net-(Q2-Pad3)*%
X83250000Y-65140000D02*
X84000000Y-64390000D01*
X85000000Y-71500000D02*
X84500000Y-72000000D01*
X85290000Y-71500000D02*
X85290000Y-71540000D01*
X91060000Y-72250000D02*
X92800000Y-70510000D01*
X83250000Y-58240000D02*
X84000000Y-57490000D01*
X92800000Y-65050000D02*
X93750000Y-66000000D01*
X85990000Y-65990000D02*
X86250000Y-66250000D01*
X84750000Y-57490000D02*
X85240000Y-57000000D01*
X83000000Y-64000000D02*
X83610000Y-64000000D01*
X83250000Y-69460000D02*
X83250000Y-65140000D01*
X84000000Y-57490000D02*
X84750000Y-57490000D01*
X85290000Y-71500000D02*
X85000000Y-71500000D01*
X93750000Y-66000000D02*
X93750000Y-69560000D01*
X93750000Y-69560000D02*
X92800000Y-70510000D01*
X86000000Y-72250000D02*
X91060000Y-72250000D01*
X92800000Y-64210000D02*
X92800000Y-65050000D01*
X85990000Y-65300000D02*
X85990000Y-65990000D01*
X84000000Y-63750000D02*
X83250000Y-63000000D01*
X83250000Y-63000000D02*
X83250000Y-58240000D01*
X84000000Y-64390000D02*
X84000000Y-63750000D01*
X83610000Y-64000000D02*
X84000000Y-64390000D01*
X85290000Y-71540000D02*
X86000000Y-72250000D01*
X85290000Y-71500000D02*
X83250000Y-69460000D01*
%TO.N,Net-(Q3-Pad3)*%
X94250000Y-58240000D02*
X95000000Y-57490000D01*
X94250000Y-69460000D02*
X94250000Y-65140000D01*
X94000000Y-64000000D02*
X94610000Y-64000000D01*
X102060000Y-72250000D02*
X103800000Y-70510000D01*
X94250000Y-65140000D02*
X95000000Y-64390000D01*
X103800000Y-65050000D02*
X104750000Y-66000000D01*
X96290000Y-71500000D02*
X94250000Y-69460000D01*
X94250000Y-63000000D02*
X94250000Y-58240000D01*
X96990000Y-65300000D02*
X96990000Y-65990000D01*
X95000000Y-64390000D02*
X95000000Y-63750000D01*
X104750000Y-66000000D02*
X104750000Y-69560000D01*
X103800000Y-64210000D02*
X103800000Y-65050000D01*
X94610000Y-64000000D02*
X95000000Y-64390000D01*
X96000000Y-71500000D02*
X95250000Y-72250000D01*
X96990000Y-65990000D02*
X97250000Y-66250000D01*
X104750000Y-69560000D02*
X103800000Y-70510000D01*
X97000000Y-72250000D02*
X102060000Y-72250000D01*
X96290000Y-71500000D02*
X96000000Y-71500000D01*
X95000000Y-63750000D02*
X94250000Y-63000000D01*
X95750000Y-57490000D02*
X96240000Y-57000000D01*
X96290000Y-71500000D02*
X96290000Y-71540000D01*
X96290000Y-71540000D02*
X97000000Y-72250000D01*
X95000000Y-57490000D02*
X95750000Y-57490000D01*
%TO.N,Net-(Q4-Pad3)*%
X106750000Y-57490000D02*
X107240000Y-57000000D01*
X105250000Y-63000000D02*
X105250000Y-58240000D01*
X107290000Y-71500000D02*
X107000000Y-71500000D01*
X105250000Y-58240000D02*
X106000000Y-57490000D01*
X107990000Y-65990000D02*
X108250000Y-66250000D01*
X107990000Y-65300000D02*
X107990000Y-65990000D01*
X107290000Y-71500000D02*
X105250000Y-69460000D01*
X106000000Y-64390000D02*
X106000000Y-63750000D01*
X105610000Y-64000000D02*
X106000000Y-64390000D01*
X107000000Y-71500000D02*
X106250000Y-72250000D01*
X114800000Y-64210000D02*
X114800000Y-65050000D01*
X115750000Y-66000000D02*
X115750000Y-69560000D01*
X115750000Y-69560000D02*
X114800000Y-70510000D01*
X114800000Y-65050000D02*
X115750000Y-66000000D01*
X106000000Y-57490000D02*
X106750000Y-57490000D01*
X105000000Y-64000000D02*
X105610000Y-64000000D01*
X107290000Y-71540000D02*
X108000000Y-72250000D01*
X108000000Y-72250000D02*
X113060000Y-72250000D01*
X105250000Y-69460000D02*
X105250000Y-65140000D01*
X107290000Y-71500000D02*
X107290000Y-71540000D01*
X106000000Y-63750000D02*
X105250000Y-63000000D01*
X105250000Y-65140000D02*
X106000000Y-64390000D01*
X113060000Y-72250000D02*
X114800000Y-70510000D01*
%TO.N,Net-(D4-Pad1)*%
X80800000Y-62722500D02*
X80800000Y-61785000D01*
X80817537Y-58907500D02*
X81444520Y-59534483D01*
X81332500Y-62722500D02*
X81800000Y-63190000D01*
X81444520Y-61158017D02*
X80817537Y-61785000D01*
X80800000Y-58907500D02*
X80817537Y-58907500D01*
X80800000Y-62722500D02*
X81332500Y-62722500D01*
X81444520Y-59534483D02*
X81444520Y-61158017D01*
X80817537Y-61785000D02*
X80800000Y-61785000D01*
%TO.N,Net-(D7-Pad1)*%
X81444520Y-65444520D02*
X81000000Y-65000000D01*
X80800000Y-68815000D02*
X80800000Y-67877500D01*
X81000000Y-65000000D02*
X80800000Y-65000000D01*
X80800000Y-68815000D02*
X81125000Y-68815000D01*
X81444520Y-67250517D02*
X81444520Y-65444520D01*
X80800000Y-67877500D02*
X80817537Y-67877500D01*
X80817537Y-67877500D02*
X81444520Y-67250517D01*
X81125000Y-68815000D02*
X81800000Y-69490000D01*
%TO.N,Net-(D19-Pad1)*%
X77534483Y-64937020D02*
X76907500Y-64310037D01*
X75970000Y-65260000D02*
X76010000Y-65300000D01*
X76907500Y-64310037D02*
X76907500Y-64292500D01*
X79158017Y-64937020D02*
X77534483Y-64937020D01*
X75970000Y-64292500D02*
X76907500Y-64292500D01*
X75970000Y-64292500D02*
X75970000Y-65260000D01*
X79785000Y-64292500D02*
X79785000Y-64310037D01*
X79785000Y-64310037D02*
X79158017Y-64937020D01*
%TO.N,Net-(D22-Pad1)*%
X86970000Y-57710000D02*
X86970000Y-58200000D01*
X90158017Y-57555480D02*
X90785000Y-58182463D01*
X87907500Y-58182463D02*
X88534483Y-57555480D01*
X86260000Y-57000000D02*
X86970000Y-57710000D01*
X86970000Y-58200000D02*
X87907500Y-58200000D01*
X88534483Y-57555480D02*
X90158017Y-57555480D01*
X90785000Y-58182463D02*
X90785000Y-58200000D01*
X87907500Y-58200000D02*
X87907500Y-58182463D01*
%TO.N,Net-(D31-Pad1)*%
X90785000Y-70500000D02*
X90785000Y-70715000D01*
X86970000Y-70840000D02*
X86310000Y-71500000D01*
X90785000Y-70715000D02*
X90250000Y-71250000D01*
X90250000Y-71250000D02*
X88639963Y-71250000D01*
X87907500Y-70517537D02*
X87907500Y-70500000D01*
X86970000Y-70500000D02*
X86970000Y-70840000D01*
X88639963Y-71250000D02*
X87907500Y-70517537D01*
X86970000Y-70500000D02*
X87907500Y-70500000D01*
%TO.N,Net-(D34-Pad1)*%
X84982463Y-67877500D02*
X84000000Y-66895037D01*
X84000000Y-66895037D02*
X84000000Y-65410000D01*
X85000000Y-68815000D02*
X85000000Y-67877500D01*
X85000000Y-67877500D02*
X84982463Y-67877500D01*
X84590000Y-65410000D02*
X85000000Y-65000000D01*
X84000000Y-65410000D02*
X84590000Y-65410000D01*
%TO.N,Net-(D43-Pad1)*%
X98907500Y-58200000D02*
X98907500Y-58182463D01*
X101158017Y-57555480D02*
X101785000Y-58182463D01*
X101785000Y-58182463D02*
X101785000Y-58200000D01*
X99534483Y-57555480D02*
X101158017Y-57555480D01*
X97970000Y-57710000D02*
X97970000Y-58200000D01*
X98907500Y-58182463D02*
X99534483Y-57555480D01*
X97970000Y-58200000D02*
X98907500Y-58200000D01*
X97260000Y-57000000D02*
X97970000Y-57710000D01*
%TO.N,Net-(D46-Pad1)*%
X102800000Y-62722500D02*
X102800000Y-61785000D01*
X103332500Y-62722500D02*
X103800000Y-63190000D01*
X102817537Y-58907500D02*
X103444520Y-59534483D01*
X102800000Y-58907500D02*
X102817537Y-58907500D01*
X103444520Y-61158017D02*
X102817537Y-61785000D01*
X102817537Y-61785000D02*
X102800000Y-61785000D01*
X102800000Y-62722500D02*
X103332500Y-62722500D01*
X103444520Y-59534483D02*
X103444520Y-61158017D01*
%TO.N,Net-(D55-Pad1)*%
X95590000Y-65410000D02*
X96000000Y-65000000D01*
X96000000Y-68815000D02*
X96000000Y-67877500D01*
X95982463Y-67877500D02*
X95000000Y-66895037D01*
X95000000Y-66895037D02*
X95000000Y-65410000D01*
X96000000Y-67877500D02*
X95982463Y-67877500D01*
X95000000Y-65410000D02*
X95590000Y-65410000D01*
%TO.N,Net-(D58-Pad1)*%
X96000000Y-61785000D02*
X96017537Y-61785000D01*
X96750000Y-61052537D02*
X96750000Y-59500000D01*
X96000000Y-62722500D02*
X96000000Y-61785000D01*
X96157500Y-58907500D02*
X96000000Y-58907500D01*
X96750000Y-59500000D02*
X96157500Y-58907500D01*
X95397500Y-58907500D02*
X95000000Y-58510000D01*
X96000000Y-58907500D02*
X95397500Y-58907500D01*
X96017537Y-61785000D02*
X96750000Y-61052537D01*
%TO.N,Net-(D67-Pad1)*%
X113800000Y-62722500D02*
X113800000Y-61785000D01*
X113817537Y-61785000D02*
X113800000Y-61785000D01*
X114444520Y-61158017D02*
X113817537Y-61785000D01*
X114332500Y-62722500D02*
X114800000Y-63190000D01*
X113800000Y-62722500D02*
X114332500Y-62722500D01*
X113817537Y-58907500D02*
X114444520Y-59534483D01*
X114444520Y-59534483D02*
X114444520Y-61158017D01*
X113800000Y-58907500D02*
X113817537Y-58907500D01*
%TO.N,Net-(D70-Pad1)*%
X114444520Y-67250517D02*
X114444520Y-65444520D01*
X114125000Y-68815000D02*
X114800000Y-69490000D01*
X113800000Y-68815000D02*
X114125000Y-68815000D01*
X113800000Y-67877500D02*
X113817537Y-67877500D01*
X114000000Y-65000000D02*
X113800000Y-65000000D01*
X114444520Y-65444520D02*
X114000000Y-65000000D01*
X113817537Y-67877500D02*
X114444520Y-67250517D01*
X113800000Y-68815000D02*
X113800000Y-67877500D01*
%TO.N,Net-(D79-Pad1)*%
X107750000Y-59500000D02*
X107157500Y-58907500D01*
X106397500Y-58907500D02*
X106000000Y-58510000D01*
X107750000Y-61052537D02*
X107750000Y-59500000D01*
X107017537Y-61785000D02*
X107750000Y-61052537D01*
X107000000Y-62722500D02*
X107000000Y-61785000D01*
X107157500Y-58907500D02*
X107000000Y-58907500D01*
X107000000Y-61785000D02*
X107017537Y-61785000D01*
X107000000Y-58907500D02*
X106397500Y-58907500D01*
%TO.N,Net-(D82-Pad1)*%
X110534483Y-64937020D02*
X109907500Y-64310037D01*
X112785000Y-64310037D02*
X112158017Y-64937020D01*
X108970000Y-64292500D02*
X109907500Y-64292500D01*
X112785000Y-64292500D02*
X112785000Y-64310037D01*
X109907500Y-64310037D02*
X109907500Y-64292500D01*
X108970000Y-65260000D02*
X109010000Y-65300000D01*
X108970000Y-64292500D02*
X108970000Y-65260000D01*
X112158017Y-64937020D02*
X110534483Y-64937020D01*
%TD*%
%TA.AperFunction,Conductor*%
%TO.N,GND*%
G36*
X120192121Y-55528002D02*
G01*
X120238614Y-55581658D01*
X120250000Y-55634000D01*
X120250000Y-76616000D01*
X120229998Y-76684121D01*
X120176342Y-76730614D01*
X120124000Y-76742000D01*
X70634000Y-76742000D01*
X70565879Y-76721998D01*
X70519386Y-76668342D01*
X70508000Y-76616000D01*
X70508000Y-75648134D01*
X85641500Y-75648134D01*
X85648255Y-75710316D01*
X85699385Y-75846705D01*
X85786739Y-75963261D01*
X85903295Y-76050615D01*
X86039684Y-76101745D01*
X86101866Y-76108500D01*
X87898134Y-76108500D01*
X87960316Y-76101745D01*
X88096705Y-76050615D01*
X88213261Y-75963261D01*
X88300615Y-75846705D01*
X88322799Y-75787529D01*
X88344598Y-75729382D01*
X88387240Y-75672618D01*
X88453802Y-75647918D01*
X88523150Y-75663126D01*
X88557817Y-75691114D01*
X88586250Y-75723938D01*
X88758126Y-75866632D01*
X88951000Y-75979338D01*
X89159692Y-76059030D01*
X89164760Y-76060061D01*
X89164763Y-76060062D01*
X89259862Y-76079410D01*
X89378597Y-76103567D01*
X89383772Y-76103757D01*
X89383774Y-76103757D01*
X89596673Y-76111564D01*
X89596677Y-76111564D01*
X89601837Y-76111753D01*
X89606957Y-76111097D01*
X89606959Y-76111097D01*
X89818288Y-76084025D01*
X89818289Y-76084025D01*
X89823416Y-76083368D01*
X89828366Y-76081883D01*
X90032429Y-76020661D01*
X90032434Y-76020659D01*
X90037384Y-76019174D01*
X90237994Y-75920896D01*
X90419860Y-75791173D01*
X90578096Y-75633489D01*
X90708453Y-75452077D01*
X90709776Y-75453028D01*
X90756645Y-75409857D01*
X90826580Y-75397625D01*
X90892026Y-75425144D01*
X90919875Y-75456994D01*
X90979987Y-75555088D01*
X91126250Y-75723938D01*
X91298126Y-75866632D01*
X91491000Y-75979338D01*
X91699692Y-76059030D01*
X91704760Y-76060061D01*
X91704763Y-76060062D01*
X91799862Y-76079410D01*
X91918597Y-76103567D01*
X91923772Y-76103757D01*
X91923774Y-76103757D01*
X92136673Y-76111564D01*
X92136677Y-76111564D01*
X92141837Y-76111753D01*
X92146957Y-76111097D01*
X92146959Y-76111097D01*
X92358288Y-76084025D01*
X92358289Y-76084025D01*
X92363416Y-76083368D01*
X92368366Y-76081883D01*
X92572429Y-76020661D01*
X92572434Y-76020659D01*
X92577384Y-76019174D01*
X92777994Y-75920896D01*
X92959860Y-75791173D01*
X93118096Y-75633489D01*
X93248453Y-75452077D01*
X93249776Y-75453028D01*
X93296645Y-75409857D01*
X93366580Y-75397625D01*
X93432026Y-75425144D01*
X93459875Y-75456994D01*
X93519987Y-75555088D01*
X93666250Y-75723938D01*
X93838126Y-75866632D01*
X94031000Y-75979338D01*
X94239692Y-76059030D01*
X94244760Y-76060061D01*
X94244763Y-76060062D01*
X94339862Y-76079410D01*
X94458597Y-76103567D01*
X94463772Y-76103757D01*
X94463774Y-76103757D01*
X94676673Y-76111564D01*
X94676677Y-76111564D01*
X94681837Y-76111753D01*
X94686957Y-76111097D01*
X94686959Y-76111097D01*
X94898288Y-76084025D01*
X94898289Y-76084025D01*
X94903416Y-76083368D01*
X94908366Y-76081883D01*
X95112429Y-76020661D01*
X95112434Y-76020659D01*
X95117384Y-76019174D01*
X95317994Y-75920896D01*
X95499860Y-75791173D01*
X95658096Y-75633489D01*
X95788453Y-75452077D01*
X95789640Y-75452930D01*
X95836960Y-75409362D01*
X95906897Y-75397145D01*
X95972338Y-75424678D01*
X96000166Y-75456511D01*
X96057694Y-75550388D01*
X96063777Y-75558699D01*
X96203213Y-75719667D01*
X96210580Y-75726883D01*
X96374434Y-75862916D01*
X96382881Y-75868831D01*
X96566756Y-75976279D01*
X96576042Y-75980729D01*
X96775001Y-76056703D01*
X96784899Y-76059579D01*
X96888250Y-76080606D01*
X96902299Y-76079410D01*
X96906000Y-76069065D01*
X96906000Y-76068517D01*
X97414000Y-76068517D01*
X97418064Y-76082359D01*
X97431478Y-76084393D01*
X97438184Y-76083534D01*
X97448262Y-76081392D01*
X97652255Y-76020191D01*
X97661842Y-76016433D01*
X97853095Y-75922739D01*
X97861945Y-75917464D01*
X98035328Y-75793792D01*
X98043200Y-75787139D01*
X98194052Y-75636812D01*
X98200730Y-75628965D01*
X98325003Y-75456020D01*
X98330313Y-75447183D01*
X98424670Y-75256267D01*
X98428469Y-75246672D01*
X98490377Y-75042910D01*
X98492555Y-75032837D01*
X98493986Y-75021962D01*
X98491775Y-75007778D01*
X98478617Y-75004000D01*
X97432115Y-75004000D01*
X97416876Y-75008475D01*
X97415671Y-75009865D01*
X97414000Y-75017548D01*
X97414000Y-76068517D01*
X96906000Y-76068517D01*
X96906000Y-74477885D01*
X97414000Y-74477885D01*
X97418475Y-74493124D01*
X97419865Y-74494329D01*
X97427548Y-74496000D01*
X98478344Y-74496000D01*
X98491875Y-74492027D01*
X98493180Y-74482947D01*
X98451214Y-74315875D01*
X98447894Y-74306124D01*
X98362972Y-74110814D01*
X98358105Y-74101739D01*
X98242426Y-73922926D01*
X98236136Y-73914757D01*
X98092806Y-73757240D01*
X98085273Y-73750215D01*
X97918139Y-73618222D01*
X97909552Y-73612517D01*
X97723117Y-73509599D01*
X97713705Y-73505369D01*
X97512959Y-73434280D01*
X97502988Y-73431646D01*
X97431837Y-73418972D01*
X97418540Y-73420432D01*
X97414000Y-73434989D01*
X97414000Y-74477885D01*
X96906000Y-74477885D01*
X96906000Y-73433102D01*
X96902082Y-73419758D01*
X96887806Y-73417771D01*
X96849324Y-73423660D01*
X96839288Y-73426051D01*
X96636868Y-73492212D01*
X96627359Y-73496209D01*
X96438463Y-73594542D01*
X96429738Y-73600036D01*
X96259433Y-73727905D01*
X96251726Y-73734748D01*
X96104590Y-73888717D01*
X96098109Y-73896722D01*
X95993498Y-74050074D01*
X95938587Y-74095076D01*
X95868062Y-74103247D01*
X95804315Y-74071993D01*
X95783618Y-74047509D01*
X95702822Y-73922617D01*
X95702820Y-73922614D01*
X95700014Y-73918277D01*
X95549670Y-73753051D01*
X95545619Y-73749852D01*
X95545615Y-73749848D01*
X95378414Y-73617800D01*
X95378410Y-73617798D01*
X95374359Y-73614598D01*
X95338028Y-73594542D01*
X95322136Y-73585769D01*
X95178789Y-73506638D01*
X95173920Y-73504914D01*
X95173916Y-73504912D01*
X94973087Y-73433795D01*
X94973083Y-73433794D01*
X94968212Y-73432069D01*
X94963119Y-73431162D01*
X94963116Y-73431161D01*
X94753373Y-73393800D01*
X94753367Y-73393799D01*
X94748284Y-73392894D01*
X94674452Y-73391992D01*
X94530081Y-73390228D01*
X94530079Y-73390228D01*
X94524911Y-73390165D01*
X94304091Y-73423955D01*
X94091756Y-73493357D01*
X93893607Y-73596507D01*
X93889474Y-73599610D01*
X93889471Y-73599612D01*
X93742407Y-73710031D01*
X93714965Y-73730635D01*
X93711393Y-73734373D01*
X93603729Y-73847037D01*
X93560629Y-73892138D01*
X93453201Y-74049621D01*
X93398293Y-74094621D01*
X93327768Y-74102792D01*
X93264021Y-74071538D01*
X93243324Y-74047054D01*
X93162822Y-73922617D01*
X93162820Y-73922614D01*
X93160014Y-73918277D01*
X93009670Y-73753051D01*
X93005619Y-73749852D01*
X93005615Y-73749848D01*
X92838414Y-73617800D01*
X92838410Y-73617798D01*
X92834359Y-73614598D01*
X92798028Y-73594542D01*
X92782136Y-73585769D01*
X92638789Y-73506638D01*
X92633920Y-73504914D01*
X92633916Y-73504912D01*
X92433087Y-73433795D01*
X92433083Y-73433794D01*
X92428212Y-73432069D01*
X92423119Y-73431162D01*
X92423116Y-73431161D01*
X92213373Y-73393800D01*
X92213367Y-73393799D01*
X92208284Y-73392894D01*
X92134452Y-73391992D01*
X91990081Y-73390228D01*
X91990079Y-73390228D01*
X91984911Y-73390165D01*
X91764091Y-73423955D01*
X91551756Y-73493357D01*
X91353607Y-73596507D01*
X91349474Y-73599610D01*
X91349471Y-73599612D01*
X91202407Y-73710031D01*
X91174965Y-73730635D01*
X91171393Y-73734373D01*
X91063729Y-73847037D01*
X91020629Y-73892138D01*
X90913201Y-74049621D01*
X90858293Y-74094621D01*
X90787768Y-74102792D01*
X90724021Y-74071538D01*
X90703324Y-74047054D01*
X90622822Y-73922617D01*
X90622820Y-73922614D01*
X90620014Y-73918277D01*
X90469670Y-73753051D01*
X90465619Y-73749852D01*
X90465615Y-73749848D01*
X90298414Y-73617800D01*
X90298410Y-73617798D01*
X90294359Y-73614598D01*
X90258028Y-73594542D01*
X90242136Y-73585769D01*
X90098789Y-73506638D01*
X90093920Y-73504914D01*
X90093916Y-73504912D01*
X89893087Y-73433795D01*
X89893083Y-73433794D01*
X89888212Y-73432069D01*
X89883119Y-73431162D01*
X89883116Y-73431161D01*
X89673373Y-73393800D01*
X89673367Y-73393799D01*
X89668284Y-73392894D01*
X89594452Y-73391992D01*
X89450081Y-73390228D01*
X89450079Y-73390228D01*
X89444911Y-73390165D01*
X89224091Y-73423955D01*
X89011756Y-73493357D01*
X88813607Y-73596507D01*
X88809474Y-73599610D01*
X88809471Y-73599612D01*
X88662407Y-73710031D01*
X88634965Y-73730635D01*
X88578537Y-73789684D01*
X88554283Y-73815064D01*
X88492759Y-73850494D01*
X88421846Y-73847037D01*
X88364060Y-73805791D01*
X88345207Y-73772243D01*
X88303767Y-73661703D01*
X88300615Y-73653295D01*
X88213261Y-73536739D01*
X88096705Y-73449385D01*
X87960316Y-73398255D01*
X87898134Y-73391500D01*
X86101866Y-73391500D01*
X86039684Y-73398255D01*
X85903295Y-73449385D01*
X85786739Y-73536739D01*
X85699385Y-73653295D01*
X85648255Y-73789684D01*
X85641500Y-73851866D01*
X85641500Y-75648134D01*
X70508000Y-75648134D01*
X70508000Y-64000000D01*
X71086496Y-64000000D01*
X71106458Y-64189928D01*
X71165473Y-64371556D01*
X71260960Y-64536944D01*
X71388747Y-64678866D01*
X71543248Y-64791118D01*
X71549276Y-64793802D01*
X71549278Y-64793803D01*
X71570526Y-64803263D01*
X71624622Y-64849243D01*
X71645271Y-64917171D01*
X71640274Y-64953524D01*
X71639967Y-64954580D01*
X71636819Y-64961855D01*
X71635579Y-64969683D01*
X71635577Y-64969690D01*
X71629901Y-65005524D01*
X71627495Y-65017144D01*
X71616500Y-65059970D01*
X71616500Y-65080224D01*
X71614949Y-65099934D01*
X71611780Y-65119943D01*
X71612526Y-65127835D01*
X71615941Y-65163961D01*
X71616500Y-65175819D01*
X71616500Y-69381233D01*
X71615973Y-69392416D01*
X71614298Y-69399909D01*
X71614547Y-69407835D01*
X71614547Y-69407836D01*
X71616438Y-69467986D01*
X71616500Y-69471945D01*
X71616500Y-69499856D01*
X71616997Y-69503790D01*
X71616997Y-69503791D01*
X71617005Y-69503856D01*
X71617938Y-69515693D01*
X71619327Y-69559889D01*
X71624372Y-69577254D01*
X71624978Y-69579339D01*
X71628987Y-69598700D01*
X71631526Y-69618797D01*
X71634445Y-69626168D01*
X71634445Y-69626170D01*
X71647804Y-69659912D01*
X71651649Y-69671142D01*
X71653125Y-69676222D01*
X71663982Y-69713593D01*
X71668015Y-69720412D01*
X71668017Y-69720417D01*
X71674293Y-69731028D01*
X71682988Y-69748776D01*
X71690448Y-69767617D01*
X71695110Y-69774033D01*
X71695110Y-69774034D01*
X71716436Y-69803387D01*
X71722952Y-69813307D01*
X71741378Y-69844463D01*
X71745458Y-69851362D01*
X71759779Y-69865683D01*
X71772619Y-69880716D01*
X71784528Y-69897107D01*
X71790634Y-69902158D01*
X71818605Y-69925298D01*
X71827384Y-69933288D01*
X72973526Y-71079430D01*
X73007552Y-71141742D01*
X73002487Y-71212557D01*
X72958492Y-71270461D01*
X72888747Y-71321134D01*
X72760960Y-71463056D01*
X72712686Y-71546669D01*
X72679241Y-71604598D01*
X72665473Y-71628444D01*
X72606458Y-71810072D01*
X72605768Y-71816633D01*
X72605768Y-71816635D01*
X72596538Y-71904457D01*
X72586496Y-72000000D01*
X72587186Y-72006565D01*
X72593500Y-72066635D01*
X72606458Y-72189928D01*
X72665473Y-72371556D01*
X72760960Y-72536944D01*
X72765378Y-72541851D01*
X72765379Y-72541852D01*
X72837145Y-72621556D01*
X72888747Y-72678866D01*
X73043248Y-72791118D01*
X73049276Y-72793802D01*
X73049278Y-72793803D01*
X73210437Y-72865555D01*
X73217712Y-72868794D01*
X73303270Y-72886980D01*
X73398056Y-72907128D01*
X73398061Y-72907128D01*
X73404513Y-72908500D01*
X73595487Y-72908500D01*
X73601939Y-72907128D01*
X73601944Y-72907128D01*
X73696730Y-72886980D01*
X73782288Y-72868794D01*
X73789563Y-72865555D01*
X73950722Y-72793803D01*
X73950724Y-72793802D01*
X73956752Y-72791118D01*
X74111253Y-72678866D01*
X74222214Y-72555632D01*
X74282659Y-72518393D01*
X74353643Y-72519745D01*
X74404944Y-72550848D01*
X74496343Y-72642247D01*
X74503887Y-72650537D01*
X74508000Y-72657018D01*
X74513777Y-72662443D01*
X74557667Y-72703658D01*
X74560509Y-72706413D01*
X74580231Y-72726135D01*
X74583355Y-72728558D01*
X74583359Y-72728562D01*
X74583424Y-72728612D01*
X74592445Y-72736317D01*
X74624679Y-72766586D01*
X74631627Y-72770405D01*
X74631629Y-72770407D01*
X74642432Y-72776346D01*
X74658959Y-72787202D01*
X74668698Y-72794757D01*
X74668700Y-72794758D01*
X74674960Y-72799614D01*
X74715540Y-72817174D01*
X74726188Y-72822391D01*
X74750976Y-72836018D01*
X74764940Y-72843695D01*
X74772616Y-72845666D01*
X74772619Y-72845667D01*
X74784562Y-72848733D01*
X74803267Y-72855137D01*
X74821855Y-72863181D01*
X74829678Y-72864420D01*
X74829688Y-72864423D01*
X74865524Y-72870099D01*
X74877144Y-72872505D01*
X74908959Y-72880673D01*
X74919970Y-72883500D01*
X74940224Y-72883500D01*
X74959934Y-72885051D01*
X74979943Y-72888220D01*
X74987835Y-72887474D01*
X75006580Y-72885702D01*
X75023962Y-72884059D01*
X75035819Y-72883500D01*
X79981233Y-72883500D01*
X79992416Y-72884027D01*
X79999909Y-72885702D01*
X80007835Y-72885453D01*
X80007836Y-72885453D01*
X80067986Y-72883562D01*
X80071945Y-72883500D01*
X80099856Y-72883500D01*
X80103791Y-72883003D01*
X80103856Y-72882995D01*
X80115693Y-72882062D01*
X80147951Y-72881048D01*
X80151970Y-72880922D01*
X80159889Y-72880673D01*
X80179343Y-72875021D01*
X80198700Y-72871013D01*
X80210930Y-72869468D01*
X80210931Y-72869468D01*
X80218797Y-72868474D01*
X80226168Y-72865555D01*
X80226170Y-72865555D01*
X80259912Y-72852196D01*
X80271142Y-72848351D01*
X80305983Y-72838229D01*
X80305984Y-72838229D01*
X80313593Y-72836018D01*
X80320412Y-72831985D01*
X80320417Y-72831983D01*
X80331028Y-72825707D01*
X80348776Y-72817012D01*
X80367617Y-72809552D01*
X80398332Y-72787237D01*
X80403387Y-72783564D01*
X80413307Y-72777048D01*
X80444535Y-72758580D01*
X80444538Y-72758578D01*
X80451362Y-72754542D01*
X80465683Y-72740221D01*
X80480717Y-72727380D01*
X80482431Y-72726135D01*
X80497107Y-72715472D01*
X80525298Y-72681395D01*
X80533288Y-72672616D01*
X81880500Y-71325404D01*
X81942812Y-71291378D01*
X81969595Y-71288499D01*
X82049988Y-71288499D01*
X82086466Y-71285629D01*
X82200851Y-71252397D01*
X82234983Y-71242481D01*
X82234985Y-71242480D01*
X82242596Y-71240269D01*
X82382541Y-71157506D01*
X82497506Y-71042541D01*
X82580269Y-70902596D01*
X82625629Y-70746466D01*
X82628500Y-70709989D01*
X82628500Y-70629595D01*
X82648502Y-70561475D01*
X82665405Y-70540501D01*
X82960906Y-70245000D01*
X83023218Y-70210974D01*
X83094033Y-70216039D01*
X83139096Y-70245000D01*
X83973526Y-71079430D01*
X84007552Y-71141742D01*
X84002487Y-71212557D01*
X83958492Y-71270461D01*
X83888747Y-71321134D01*
X83760960Y-71463056D01*
X83712686Y-71546669D01*
X83679241Y-71604598D01*
X83665473Y-71628444D01*
X83606458Y-71810072D01*
X83605768Y-71816633D01*
X83605768Y-71816635D01*
X83596538Y-71904457D01*
X83586496Y-72000000D01*
X83587186Y-72006565D01*
X83593500Y-72066635D01*
X83606458Y-72189928D01*
X83665473Y-72371556D01*
X83760960Y-72536944D01*
X83765378Y-72541851D01*
X83765379Y-72541852D01*
X83837145Y-72621556D01*
X83888747Y-72678866D01*
X84043248Y-72791118D01*
X84049276Y-72793802D01*
X84049278Y-72793803D01*
X84210437Y-72865555D01*
X84217712Y-72868794D01*
X84303270Y-72886980D01*
X84398056Y-72907128D01*
X84398061Y-72907128D01*
X84404513Y-72908500D01*
X84595487Y-72908500D01*
X84601939Y-72907128D01*
X84601944Y-72907128D01*
X84696730Y-72886980D01*
X84782288Y-72868794D01*
X84789563Y-72865555D01*
X84950722Y-72793803D01*
X84950724Y-72793802D01*
X84956752Y-72791118D01*
X85111253Y-72678866D01*
X85222214Y-72555632D01*
X85282659Y-72518393D01*
X85353643Y-72519745D01*
X85404944Y-72550848D01*
X85496343Y-72642247D01*
X85503887Y-72650537D01*
X85508000Y-72657018D01*
X85513777Y-72662443D01*
X85557667Y-72703658D01*
X85560509Y-72706413D01*
X85580231Y-72726135D01*
X85583355Y-72728558D01*
X85583359Y-72728562D01*
X85583424Y-72728612D01*
X85592445Y-72736317D01*
X85624679Y-72766586D01*
X85631627Y-72770405D01*
X85631629Y-72770407D01*
X85642432Y-72776346D01*
X85658959Y-72787202D01*
X85668698Y-72794757D01*
X85668700Y-72794758D01*
X85674960Y-72799614D01*
X85715540Y-72817174D01*
X85726188Y-72822391D01*
X85750976Y-72836018D01*
X85764940Y-72843695D01*
X85772616Y-72845666D01*
X85772619Y-72845667D01*
X85784562Y-72848733D01*
X85803267Y-72855137D01*
X85821855Y-72863181D01*
X85829678Y-72864420D01*
X85829688Y-72864423D01*
X85865524Y-72870099D01*
X85877144Y-72872505D01*
X85908959Y-72880673D01*
X85919970Y-72883500D01*
X85940224Y-72883500D01*
X85959934Y-72885051D01*
X85979943Y-72888220D01*
X85987835Y-72887474D01*
X86006580Y-72885702D01*
X86023962Y-72884059D01*
X86035819Y-72883500D01*
X90981233Y-72883500D01*
X90992416Y-72884027D01*
X90999909Y-72885702D01*
X91007835Y-72885453D01*
X91007836Y-72885453D01*
X91067986Y-72883562D01*
X91071945Y-72883500D01*
X91099856Y-72883500D01*
X91103791Y-72883003D01*
X91103856Y-72882995D01*
X91115693Y-72882062D01*
X91147951Y-72881048D01*
X91151970Y-72880922D01*
X91159889Y-72880673D01*
X91179343Y-72875021D01*
X91198700Y-72871013D01*
X91210930Y-72869468D01*
X91210931Y-72869468D01*
X91218797Y-72868474D01*
X91226168Y-72865555D01*
X91226170Y-72865555D01*
X91259912Y-72852196D01*
X91271142Y-72848351D01*
X91305983Y-72838229D01*
X91305984Y-72838229D01*
X91313593Y-72836018D01*
X91320412Y-72831985D01*
X91320417Y-72831983D01*
X91331028Y-72825707D01*
X91348776Y-72817012D01*
X91367617Y-72809552D01*
X91398332Y-72787237D01*
X91403387Y-72783564D01*
X91413307Y-72777048D01*
X91444535Y-72758580D01*
X91444538Y-72758578D01*
X91451362Y-72754542D01*
X91465683Y-72740221D01*
X91480717Y-72727380D01*
X91482431Y-72726135D01*
X91497107Y-72715472D01*
X91525298Y-72681395D01*
X91533288Y-72672616D01*
X92880500Y-71325404D01*
X92942812Y-71291378D01*
X92969595Y-71288499D01*
X93049988Y-71288499D01*
X93086466Y-71285629D01*
X93200851Y-71252397D01*
X93234983Y-71242481D01*
X93234985Y-71242480D01*
X93242596Y-71240269D01*
X93382541Y-71157506D01*
X93497506Y-71042541D01*
X93580269Y-70902596D01*
X93625629Y-70746466D01*
X93628500Y-70709989D01*
X93628500Y-70629595D01*
X93648502Y-70561475D01*
X93665405Y-70540501D01*
X93960906Y-70245000D01*
X94023218Y-70210974D01*
X94094033Y-70216039D01*
X94139096Y-70245000D01*
X95057289Y-71163193D01*
X95091315Y-71225505D01*
X95086250Y-71296320D01*
X95043703Y-71353156D01*
X94994392Y-71375534D01*
X94974176Y-71379831D01*
X94974167Y-71379834D01*
X94967712Y-71381206D01*
X94961682Y-71383891D01*
X94961681Y-71383891D01*
X94799278Y-71456197D01*
X94799276Y-71456198D01*
X94793248Y-71458882D01*
X94787907Y-71462762D01*
X94787906Y-71462763D01*
X94779082Y-71469174D01*
X94638747Y-71571134D01*
X94634326Y-71576044D01*
X94634325Y-71576045D01*
X94610862Y-71602104D01*
X94510960Y-71713056D01*
X94415473Y-71878444D01*
X94356458Y-72060072D01*
X94355768Y-72066633D01*
X94355768Y-72066635D01*
X94342810Y-72189928D01*
X94336496Y-72250000D01*
X94337186Y-72256565D01*
X94344747Y-72328500D01*
X94356458Y-72439928D01*
X94415473Y-72621556D01*
X94418776Y-72627278D01*
X94418777Y-72627279D01*
X94435947Y-72657018D01*
X94510960Y-72786944D01*
X94515378Y-72791851D01*
X94515379Y-72791852D01*
X94602149Y-72888220D01*
X94638747Y-72928866D01*
X94737843Y-73000864D01*
X94775288Y-73028069D01*
X94793248Y-73041118D01*
X94799276Y-73043802D01*
X94799278Y-73043803D01*
X94961681Y-73116109D01*
X94967712Y-73118794D01*
X95061113Y-73138647D01*
X95148056Y-73157128D01*
X95148061Y-73157128D01*
X95154513Y-73158500D01*
X95345487Y-73158500D01*
X95351939Y-73157128D01*
X95351944Y-73157128D01*
X95438887Y-73138647D01*
X95532288Y-73118794D01*
X95538319Y-73116109D01*
X95700722Y-73043803D01*
X95700724Y-73043802D01*
X95706752Y-73041118D01*
X95724713Y-73028069D01*
X95762157Y-73000864D01*
X95861253Y-72928866D01*
X95897851Y-72888220D01*
X95984621Y-72791852D01*
X95984622Y-72791851D01*
X95989040Y-72786944D01*
X96064053Y-72657018D01*
X96081223Y-72627279D01*
X96081224Y-72627278D01*
X96084527Y-72621556D01*
X96116908Y-72521898D01*
X96156982Y-72463293D01*
X96222379Y-72435656D01*
X96292335Y-72447763D01*
X96325836Y-72471740D01*
X96496343Y-72642247D01*
X96503887Y-72650537D01*
X96508000Y-72657018D01*
X96513777Y-72662443D01*
X96557667Y-72703658D01*
X96560509Y-72706413D01*
X96580231Y-72726135D01*
X96583355Y-72728558D01*
X96583359Y-72728562D01*
X96583424Y-72728612D01*
X96592445Y-72736317D01*
X96624679Y-72766586D01*
X96631627Y-72770405D01*
X96631629Y-72770407D01*
X96642432Y-72776346D01*
X96658959Y-72787202D01*
X96668698Y-72794757D01*
X96668700Y-72794758D01*
X96674960Y-72799614D01*
X96715540Y-72817174D01*
X96726188Y-72822391D01*
X96750976Y-72836018D01*
X96764940Y-72843695D01*
X96772616Y-72845666D01*
X96772619Y-72845667D01*
X96784562Y-72848733D01*
X96803267Y-72855137D01*
X96821855Y-72863181D01*
X96829678Y-72864420D01*
X96829688Y-72864423D01*
X96865524Y-72870099D01*
X96877144Y-72872505D01*
X96908959Y-72880673D01*
X96919970Y-72883500D01*
X96940224Y-72883500D01*
X96959934Y-72885051D01*
X96979943Y-72888220D01*
X96987835Y-72887474D01*
X97006580Y-72885702D01*
X97023962Y-72884059D01*
X97035819Y-72883500D01*
X101981233Y-72883500D01*
X101992416Y-72884027D01*
X101999909Y-72885702D01*
X102007835Y-72885453D01*
X102007836Y-72885453D01*
X102067986Y-72883562D01*
X102071945Y-72883500D01*
X102099856Y-72883500D01*
X102103791Y-72883003D01*
X102103856Y-72882995D01*
X102115693Y-72882062D01*
X102147951Y-72881048D01*
X102151970Y-72880922D01*
X102159889Y-72880673D01*
X102179343Y-72875021D01*
X102198700Y-72871013D01*
X102210930Y-72869468D01*
X102210931Y-72869468D01*
X102218797Y-72868474D01*
X102226168Y-72865555D01*
X102226170Y-72865555D01*
X102259912Y-72852196D01*
X102271142Y-72848351D01*
X102305983Y-72838229D01*
X102305984Y-72838229D01*
X102313593Y-72836018D01*
X102320412Y-72831985D01*
X102320417Y-72831983D01*
X102331028Y-72825707D01*
X102348776Y-72817012D01*
X102367617Y-72809552D01*
X102398332Y-72787237D01*
X102403387Y-72783564D01*
X102413307Y-72777048D01*
X102444535Y-72758580D01*
X102444538Y-72758578D01*
X102451362Y-72754542D01*
X102465683Y-72740221D01*
X102480717Y-72727380D01*
X102482431Y-72726135D01*
X102497107Y-72715472D01*
X102525298Y-72681395D01*
X102533288Y-72672616D01*
X103880500Y-71325404D01*
X103942812Y-71291378D01*
X103969595Y-71288499D01*
X104049988Y-71288499D01*
X104086466Y-71285629D01*
X104200851Y-71252397D01*
X104234983Y-71242481D01*
X104234985Y-71242480D01*
X104242596Y-71240269D01*
X104382541Y-71157506D01*
X104497506Y-71042541D01*
X104580269Y-70902596D01*
X104625629Y-70746466D01*
X104628500Y-70709989D01*
X104628500Y-70629595D01*
X104648502Y-70561475D01*
X104665405Y-70540501D01*
X104960906Y-70245000D01*
X105023218Y-70210974D01*
X105094033Y-70216039D01*
X105139096Y-70245000D01*
X106057289Y-71163193D01*
X106091315Y-71225505D01*
X106086250Y-71296320D01*
X106043703Y-71353156D01*
X105994392Y-71375534D01*
X105974176Y-71379831D01*
X105974167Y-71379834D01*
X105967712Y-71381206D01*
X105961682Y-71383891D01*
X105961681Y-71383891D01*
X105799278Y-71456197D01*
X105799276Y-71456198D01*
X105793248Y-71458882D01*
X105787907Y-71462762D01*
X105787906Y-71462763D01*
X105779082Y-71469174D01*
X105638747Y-71571134D01*
X105634326Y-71576044D01*
X105634325Y-71576045D01*
X105610862Y-71602104D01*
X105510960Y-71713056D01*
X105415473Y-71878444D01*
X105356458Y-72060072D01*
X105355768Y-72066633D01*
X105355768Y-72066635D01*
X105342810Y-72189928D01*
X105336496Y-72250000D01*
X105337186Y-72256565D01*
X105344747Y-72328500D01*
X105356458Y-72439928D01*
X105415473Y-72621556D01*
X105418776Y-72627278D01*
X105418777Y-72627279D01*
X105435947Y-72657018D01*
X105510960Y-72786944D01*
X105515378Y-72791851D01*
X105515379Y-72791852D01*
X105602149Y-72888220D01*
X105638747Y-72928866D01*
X105737843Y-73000864D01*
X105775288Y-73028069D01*
X105793248Y-73041118D01*
X105799276Y-73043802D01*
X105799278Y-73043803D01*
X105961681Y-73116109D01*
X105967712Y-73118794D01*
X106061113Y-73138647D01*
X106148056Y-73157128D01*
X106148061Y-73157128D01*
X106154513Y-73158500D01*
X106345487Y-73158500D01*
X106351939Y-73157128D01*
X106351944Y-73157128D01*
X106438887Y-73138647D01*
X106532288Y-73118794D01*
X106538319Y-73116109D01*
X106700722Y-73043803D01*
X106700724Y-73043802D01*
X106706752Y-73041118D01*
X106724713Y-73028069D01*
X106762157Y-73000864D01*
X106861253Y-72928866D01*
X106897851Y-72888220D01*
X106984621Y-72791852D01*
X106984622Y-72791851D01*
X106989040Y-72786944D01*
X107064053Y-72657018D01*
X107081223Y-72627279D01*
X107081224Y-72627278D01*
X107084527Y-72621556D01*
X107116908Y-72521898D01*
X107156982Y-72463293D01*
X107222379Y-72435656D01*
X107292335Y-72447763D01*
X107325836Y-72471740D01*
X107496343Y-72642247D01*
X107503887Y-72650537D01*
X107508000Y-72657018D01*
X107513777Y-72662443D01*
X107557667Y-72703658D01*
X107560509Y-72706413D01*
X107580231Y-72726135D01*
X107583355Y-72728558D01*
X107583359Y-72728562D01*
X107583424Y-72728612D01*
X107592445Y-72736317D01*
X107624679Y-72766586D01*
X107631627Y-72770405D01*
X107631629Y-72770407D01*
X107642432Y-72776346D01*
X107658959Y-72787202D01*
X107668698Y-72794757D01*
X107668700Y-72794758D01*
X107674960Y-72799614D01*
X107715540Y-72817174D01*
X107726188Y-72822391D01*
X107750976Y-72836018D01*
X107764940Y-72843695D01*
X107772616Y-72845666D01*
X107772619Y-72845667D01*
X107784562Y-72848733D01*
X107803267Y-72855137D01*
X107821855Y-72863181D01*
X107829678Y-72864420D01*
X107829688Y-72864423D01*
X107865524Y-72870099D01*
X107877144Y-72872505D01*
X107908959Y-72880673D01*
X107919970Y-72883500D01*
X107940224Y-72883500D01*
X107959934Y-72885051D01*
X107979943Y-72888220D01*
X107987835Y-72887474D01*
X108006580Y-72885702D01*
X108023962Y-72884059D01*
X108035819Y-72883500D01*
X112981233Y-72883500D01*
X112992416Y-72884027D01*
X112999909Y-72885702D01*
X113007835Y-72885453D01*
X113007836Y-72885453D01*
X113067986Y-72883562D01*
X113071945Y-72883500D01*
X113099856Y-72883500D01*
X113103791Y-72883003D01*
X113103856Y-72882995D01*
X113115693Y-72882062D01*
X113147951Y-72881048D01*
X113151970Y-72880922D01*
X113159889Y-72880673D01*
X113179343Y-72875021D01*
X113198700Y-72871013D01*
X113210930Y-72869468D01*
X113210931Y-72869468D01*
X113218797Y-72868474D01*
X113226168Y-72865555D01*
X113226170Y-72865555D01*
X113259912Y-72852196D01*
X113271142Y-72848351D01*
X113305983Y-72838229D01*
X113305984Y-72838229D01*
X113313593Y-72836018D01*
X113320412Y-72831985D01*
X113320417Y-72831983D01*
X113331028Y-72825707D01*
X113348776Y-72817012D01*
X113367617Y-72809552D01*
X113398332Y-72787237D01*
X113403387Y-72783564D01*
X113413307Y-72777048D01*
X113444535Y-72758580D01*
X113444538Y-72758578D01*
X113451362Y-72754542D01*
X113465683Y-72740221D01*
X113480717Y-72727380D01*
X113482431Y-72726135D01*
X113497107Y-72715472D01*
X113504368Y-72706695D01*
X116887251Y-72706695D01*
X116887548Y-72711848D01*
X116887548Y-72711851D01*
X116897535Y-72885051D01*
X116900110Y-72929715D01*
X116901247Y-72934761D01*
X116901248Y-72934767D01*
X116921119Y-73022939D01*
X116949222Y-73147639D01*
X117033266Y-73354616D01*
X117056095Y-73391869D01*
X117144871Y-73536739D01*
X117149987Y-73545088D01*
X117296250Y-73713938D01*
X117468126Y-73856632D01*
X117661000Y-73969338D01*
X117869692Y-74049030D01*
X117874760Y-74050061D01*
X117874763Y-74050062D01*
X117978523Y-74071172D01*
X118088597Y-74093567D01*
X118093772Y-74093757D01*
X118093774Y-74093757D01*
X118306673Y-74101564D01*
X118306677Y-74101564D01*
X118311837Y-74101753D01*
X118316957Y-74101097D01*
X118316959Y-74101097D01*
X118528288Y-74074025D01*
X118528289Y-74074025D01*
X118533416Y-74073368D01*
X118540736Y-74071172D01*
X118742429Y-74010661D01*
X118742434Y-74010659D01*
X118747384Y-74009174D01*
X118947994Y-73910896D01*
X119129860Y-73781173D01*
X119158081Y-73753051D01*
X119284435Y-73627137D01*
X119288096Y-73623489D01*
X119307485Y-73596507D01*
X119415435Y-73446277D01*
X119418453Y-73442077D01*
X119422307Y-73434280D01*
X119515136Y-73246453D01*
X119515137Y-73246451D01*
X119517430Y-73241811D01*
X119577590Y-73043803D01*
X119580865Y-73033023D01*
X119580865Y-73033021D01*
X119582370Y-73028069D01*
X119611529Y-72806590D01*
X119611623Y-72802759D01*
X119613074Y-72743365D01*
X119613074Y-72743361D01*
X119613156Y-72740000D01*
X119594852Y-72517361D01*
X119540431Y-72300702D01*
X119451354Y-72095840D01*
X119330014Y-71908277D01*
X119179670Y-71743051D01*
X119175619Y-71739852D01*
X119175615Y-71739848D01*
X119008414Y-71607800D01*
X119008410Y-71607798D01*
X119004359Y-71604598D01*
X118963053Y-71581796D01*
X118913084Y-71531364D01*
X118898312Y-71461921D01*
X118923428Y-71395516D01*
X118950780Y-71368909D01*
X119020148Y-71319429D01*
X119129860Y-71241173D01*
X119134817Y-71236234D01*
X119213820Y-71157506D01*
X119288096Y-71083489D01*
X119347594Y-71000689D01*
X119415435Y-70906277D01*
X119418453Y-70902077D01*
X119514609Y-70707520D01*
X119515136Y-70706453D01*
X119515137Y-70706451D01*
X119517430Y-70701811D01*
X119555228Y-70577405D01*
X119580865Y-70493023D01*
X119580865Y-70493021D01*
X119582370Y-70488069D01*
X119611529Y-70266590D01*
X119613156Y-70200000D01*
X119594852Y-69977361D01*
X119540431Y-69760702D01*
X119451354Y-69555840D01*
X119392997Y-69465634D01*
X119332822Y-69372617D01*
X119332820Y-69372614D01*
X119330014Y-69368277D01*
X119179670Y-69203051D01*
X119175619Y-69199852D01*
X119175615Y-69199848D01*
X119008414Y-69067800D01*
X119008410Y-69067798D01*
X119004359Y-69064598D01*
X118963053Y-69041796D01*
X118913084Y-68991364D01*
X118898312Y-68921921D01*
X118923428Y-68855516D01*
X118950780Y-68828909D01*
X118994603Y-68797650D01*
X119129860Y-68701173D01*
X119177579Y-68653621D01*
X119260354Y-68571134D01*
X119288096Y-68543489D01*
X119347594Y-68460689D01*
X119415435Y-68366277D01*
X119418453Y-68362077D01*
X119451007Y-68296210D01*
X119515136Y-68166453D01*
X119515137Y-68166451D01*
X119517430Y-68161811D01*
X119582370Y-67948069D01*
X119611529Y-67726590D01*
X119611980Y-67708148D01*
X119613074Y-67663365D01*
X119613074Y-67663361D01*
X119613156Y-67660000D01*
X119594852Y-67437361D01*
X119540431Y-67220702D01*
X119451354Y-67015840D01*
X119397600Y-66932749D01*
X119332822Y-66832617D01*
X119332820Y-66832614D01*
X119330014Y-66828277D01*
X119179670Y-66663051D01*
X119175619Y-66659852D01*
X119175615Y-66659848D01*
X119008414Y-66527800D01*
X119008410Y-66527798D01*
X119004359Y-66524598D01*
X118963053Y-66501796D01*
X118913084Y-66451364D01*
X118898312Y-66381921D01*
X118923428Y-66315516D01*
X118950780Y-66288909D01*
X119012989Y-66244536D01*
X119129860Y-66161173D01*
X119161221Y-66129922D01*
X119284435Y-66007137D01*
X119288096Y-66003489D01*
X119296424Y-65991900D01*
X119415435Y-65826277D01*
X119418453Y-65822077D01*
X119434868Y-65788865D01*
X119515136Y-65626453D01*
X119515137Y-65626451D01*
X119517430Y-65621811D01*
X119578965Y-65419275D01*
X119580865Y-65413023D01*
X119580865Y-65413021D01*
X119582370Y-65408069D01*
X119611529Y-65186590D01*
X119611792Y-65175819D01*
X119613074Y-65123365D01*
X119613074Y-65123361D01*
X119613156Y-65120000D01*
X119594852Y-64897361D01*
X119540431Y-64680702D01*
X119451354Y-64475840D01*
X119330014Y-64288277D01*
X119179670Y-64123051D01*
X119175619Y-64119852D01*
X119175615Y-64119848D01*
X119008414Y-63987800D01*
X119008410Y-63987798D01*
X119004359Y-63984598D01*
X118963053Y-63961796D01*
X118913084Y-63911364D01*
X118898312Y-63841921D01*
X118923428Y-63775516D01*
X118950780Y-63748909D01*
X119019348Y-63700000D01*
X119129860Y-63621173D01*
X119288096Y-63463489D01*
X119308537Y-63435043D01*
X119415435Y-63286277D01*
X119418453Y-63282077D01*
X119434563Y-63249482D01*
X119515136Y-63086453D01*
X119515137Y-63086451D01*
X119517430Y-63081811D01*
X119563536Y-62930058D01*
X119580865Y-62873023D01*
X119580865Y-62873021D01*
X119582370Y-62868069D01*
X119611529Y-62646590D01*
X119613156Y-62580000D01*
X119594852Y-62357361D01*
X119540431Y-62140702D01*
X119451354Y-61935840D01*
X119384848Y-61833037D01*
X119332822Y-61752617D01*
X119332820Y-61752614D01*
X119330014Y-61748277D01*
X119179670Y-61583051D01*
X119175619Y-61579852D01*
X119175615Y-61579848D01*
X119008414Y-61447800D01*
X119008410Y-61447798D01*
X119004359Y-61444598D01*
X118963053Y-61421796D01*
X118913084Y-61371364D01*
X118898312Y-61301921D01*
X118923428Y-61235516D01*
X118950780Y-61208909D01*
X119005073Y-61170182D01*
X119129860Y-61081173D01*
X119288096Y-60923489D01*
X119347594Y-60840689D01*
X119415435Y-60746277D01*
X119418453Y-60742077D01*
X119517430Y-60541811D01*
X119566643Y-60379834D01*
X119580865Y-60333023D01*
X119580865Y-60333021D01*
X119582370Y-60328069D01*
X119611529Y-60106590D01*
X119613156Y-60040000D01*
X119594852Y-59817361D01*
X119540431Y-59600702D01*
X119451354Y-59395840D01*
X119381916Y-59288505D01*
X119332822Y-59212617D01*
X119332820Y-59212614D01*
X119330014Y-59208277D01*
X119314381Y-59191096D01*
X119182798Y-59046488D01*
X119151746Y-58982642D01*
X119160141Y-58912143D01*
X119205317Y-58857375D01*
X119231761Y-58843706D01*
X119338297Y-58803767D01*
X119346705Y-58800615D01*
X119463261Y-58713261D01*
X119550615Y-58596705D01*
X119601745Y-58460316D01*
X119608500Y-58398134D01*
X119608500Y-56601866D01*
X119601745Y-56539684D01*
X119550615Y-56403295D01*
X119463261Y-56286739D01*
X119346705Y-56199385D01*
X119210316Y-56148255D01*
X119148134Y-56141500D01*
X117351866Y-56141500D01*
X117289684Y-56148255D01*
X117153295Y-56199385D01*
X117036739Y-56286739D01*
X116949385Y-56403295D01*
X116898255Y-56539684D01*
X116891500Y-56601866D01*
X116891500Y-58398134D01*
X116898255Y-58460316D01*
X116949385Y-58596705D01*
X117036739Y-58713261D01*
X117153295Y-58800615D01*
X117161704Y-58803767D01*
X117161705Y-58803768D01*
X117270451Y-58844535D01*
X117327216Y-58887176D01*
X117351916Y-58953738D01*
X117336709Y-59023087D01*
X117317316Y-59049568D01*
X117221391Y-59149948D01*
X117190629Y-59182138D01*
X117064743Y-59366680D01*
X117050588Y-59397174D01*
X116991481Y-59524511D01*
X116970688Y-59569305D01*
X116910989Y-59784570D01*
X116887251Y-60006695D01*
X116887548Y-60011848D01*
X116887548Y-60011851D01*
X116897819Y-60189977D01*
X116900110Y-60229715D01*
X116901247Y-60234761D01*
X116901248Y-60234767D01*
X116913234Y-60287952D01*
X116949222Y-60447639D01*
X117033266Y-60654616D01*
X117149987Y-60845088D01*
X117296250Y-61013938D01*
X117468126Y-61156632D01*
X117500232Y-61175393D01*
X117541445Y-61199476D01*
X117590169Y-61251114D01*
X117603240Y-61320897D01*
X117576509Y-61386669D01*
X117536055Y-61420027D01*
X117523607Y-61426507D01*
X117519474Y-61429610D01*
X117519471Y-61429612D01*
X117349100Y-61557530D01*
X117344965Y-61560635D01*
X117328574Y-61577787D01*
X117205863Y-61706197D01*
X117190629Y-61722138D01*
X117187715Y-61726410D01*
X117187714Y-61726411D01*
X117119748Y-61826045D01*
X117064743Y-61906680D01*
X117038574Y-61963056D01*
X117007720Y-62029527D01*
X116970688Y-62109305D01*
X116910989Y-62324570D01*
X116887251Y-62546695D01*
X116887548Y-62551848D01*
X116887548Y-62551851D01*
X116897843Y-62730393D01*
X116900110Y-62769715D01*
X116901247Y-62774761D01*
X116901248Y-62774767D01*
X116918100Y-62849543D01*
X116949222Y-62987639D01*
X117006043Y-63127573D01*
X117023647Y-63170926D01*
X117033266Y-63194616D01*
X117058342Y-63235537D01*
X117116012Y-63329645D01*
X117149987Y-63385088D01*
X117296250Y-63553938D01*
X117468126Y-63696632D01*
X117473890Y-63700000D01*
X117541445Y-63739476D01*
X117590169Y-63791114D01*
X117603240Y-63860897D01*
X117576509Y-63926669D01*
X117536055Y-63960027D01*
X117523607Y-63966507D01*
X117519474Y-63969610D01*
X117519471Y-63969612D01*
X117462371Y-64012484D01*
X117344965Y-64100635D01*
X117190629Y-64262138D01*
X117064743Y-64446680D01*
X117049003Y-64480590D01*
X116992370Y-64602596D01*
X116970688Y-64649305D01*
X116910989Y-64864570D01*
X116887251Y-65086695D01*
X116887548Y-65091848D01*
X116887548Y-65091851D01*
X116896721Y-65250937D01*
X116900110Y-65309715D01*
X116901247Y-65314761D01*
X116901248Y-65314767D01*
X116921119Y-65402939D01*
X116949222Y-65527639D01*
X117001593Y-65656613D01*
X117027509Y-65720437D01*
X117033266Y-65734616D01*
X117035965Y-65739020D01*
X117139538Y-65908036D01*
X117149987Y-65925088D01*
X117296250Y-66093938D01*
X117468126Y-66236632D01*
X117538595Y-66277811D01*
X117541445Y-66279476D01*
X117590169Y-66331114D01*
X117603240Y-66400897D01*
X117576509Y-66466669D01*
X117536055Y-66500027D01*
X117523607Y-66506507D01*
X117519474Y-66509610D01*
X117519471Y-66509612D01*
X117352831Y-66634729D01*
X117344965Y-66640635D01*
X117341393Y-66644373D01*
X117200459Y-66791852D01*
X117190629Y-66802138D01*
X117064743Y-66986680D01*
X117049003Y-67020590D01*
X116977696Y-67174208D01*
X116970688Y-67189305D01*
X116910989Y-67404570D01*
X116887251Y-67626695D01*
X116887548Y-67631848D01*
X116887548Y-67631851D01*
X116893011Y-67726590D01*
X116900110Y-67849715D01*
X116901247Y-67854761D01*
X116901248Y-67854767D01*
X116913358Y-67908500D01*
X116949222Y-68067639D01*
X116987461Y-68161811D01*
X117023271Y-68250000D01*
X117033266Y-68274616D01*
X117035965Y-68279020D01*
X117144539Y-68456197D01*
X117149987Y-68465088D01*
X117296250Y-68633938D01*
X117468126Y-68776632D01*
X117538595Y-68817811D01*
X117541445Y-68819476D01*
X117590169Y-68871114D01*
X117603240Y-68940897D01*
X117576509Y-69006669D01*
X117536055Y-69040027D01*
X117523607Y-69046507D01*
X117519474Y-69049610D01*
X117519471Y-69049612D01*
X117359180Y-69169962D01*
X117344965Y-69180635D01*
X117190629Y-69342138D01*
X117187715Y-69346410D01*
X117187714Y-69346411D01*
X117169838Y-69372617D01*
X117064743Y-69526680D01*
X117023945Y-69614572D01*
X116974814Y-69720417D01*
X116970688Y-69729305D01*
X116910989Y-69944570D01*
X116887251Y-70166695D01*
X116887548Y-70171848D01*
X116887548Y-70171851D01*
X116893011Y-70266590D01*
X116900110Y-70389715D01*
X116901247Y-70394761D01*
X116901248Y-70394767D01*
X116921119Y-70482939D01*
X116949222Y-70607639D01*
X117033266Y-70814616D01*
X117149987Y-71005088D01*
X117296250Y-71173938D01*
X117468126Y-71316632D01*
X117522665Y-71348502D01*
X117541445Y-71359476D01*
X117590169Y-71411114D01*
X117603240Y-71480897D01*
X117576509Y-71546669D01*
X117536055Y-71580027D01*
X117523607Y-71586507D01*
X117519474Y-71589610D01*
X117519471Y-71589612D01*
X117483660Y-71616500D01*
X117344965Y-71720635D01*
X117190629Y-71882138D01*
X117064743Y-72066680D01*
X117049003Y-72100590D01*
X116976602Y-72256565D01*
X116970688Y-72269305D01*
X116910989Y-72484570D01*
X116887251Y-72706695D01*
X113504368Y-72706695D01*
X113525298Y-72681395D01*
X113533288Y-72672616D01*
X114880500Y-71325404D01*
X114942812Y-71291378D01*
X114969595Y-71288499D01*
X115049988Y-71288499D01*
X115086466Y-71285629D01*
X115200851Y-71252397D01*
X115234983Y-71242481D01*
X115234985Y-71242480D01*
X115242596Y-71240269D01*
X115382541Y-71157506D01*
X115497506Y-71042541D01*
X115580269Y-70902596D01*
X115625629Y-70746466D01*
X115628500Y-70709989D01*
X115628500Y-70629595D01*
X115648502Y-70561474D01*
X115665405Y-70540500D01*
X116142253Y-70063652D01*
X116150539Y-70056112D01*
X116157018Y-70052000D01*
X116203644Y-70002348D01*
X116206398Y-69999507D01*
X116226135Y-69979770D01*
X116228615Y-69976573D01*
X116236320Y-69967551D01*
X116253077Y-69949707D01*
X116266586Y-69935321D01*
X116270405Y-69928375D01*
X116270407Y-69928372D01*
X116276348Y-69917566D01*
X116287199Y-69901047D01*
X116294758Y-69891301D01*
X116299614Y-69885041D01*
X116302759Y-69877772D01*
X116302762Y-69877768D01*
X116317174Y-69844463D01*
X116322391Y-69833813D01*
X116343695Y-69795060D01*
X116348733Y-69775437D01*
X116355137Y-69756734D01*
X116360033Y-69745420D01*
X116360033Y-69745419D01*
X116363181Y-69738145D01*
X116364420Y-69730322D01*
X116364423Y-69730312D01*
X116370099Y-69694476D01*
X116372505Y-69682856D01*
X116381528Y-69647711D01*
X116381528Y-69647710D01*
X116383500Y-69640030D01*
X116383500Y-69619776D01*
X116385051Y-69600065D01*
X116386980Y-69587886D01*
X116388220Y-69580057D01*
X116384059Y-69536038D01*
X116383500Y-69524181D01*
X116383500Y-66078767D01*
X116384027Y-66067584D01*
X116385702Y-66060091D01*
X116383562Y-65992000D01*
X116383500Y-65988043D01*
X116383500Y-65960144D01*
X116382996Y-65956153D01*
X116382063Y-65944311D01*
X116380923Y-65908036D01*
X116380674Y-65900111D01*
X116378462Y-65892497D01*
X116378461Y-65892492D01*
X116375023Y-65880659D01*
X116371012Y-65861295D01*
X116369467Y-65849064D01*
X116368474Y-65841203D01*
X116365557Y-65833836D01*
X116365556Y-65833831D01*
X116352198Y-65800092D01*
X116348354Y-65788865D01*
X116338230Y-65754022D01*
X116336018Y-65746407D01*
X116325707Y-65728972D01*
X116317012Y-65711224D01*
X116309552Y-65692383D01*
X116283564Y-65656613D01*
X116277048Y-65646693D01*
X116258580Y-65615465D01*
X116258578Y-65615462D01*
X116254542Y-65608638D01*
X116240221Y-65594317D01*
X116227380Y-65579283D01*
X116215472Y-65562893D01*
X116209367Y-65557842D01*
X116209362Y-65557837D01*
X116181396Y-65534701D01*
X116172618Y-65526713D01*
X115526087Y-64880182D01*
X115492061Y-64817870D01*
X115497126Y-64747055D01*
X115506728Y-64726948D01*
X115576234Y-64609419D01*
X115576234Y-64609418D01*
X115580269Y-64602596D01*
X115625629Y-64446466D01*
X115628500Y-64409989D01*
X115628499Y-64010012D01*
X115625629Y-63973534D01*
X115580269Y-63817404D01*
X115576233Y-63810579D01*
X115576231Y-63810575D01*
X115548769Y-63764139D01*
X115531309Y-63695323D01*
X115548769Y-63635861D01*
X115576231Y-63589425D01*
X115576233Y-63589421D01*
X115580269Y-63582596D01*
X115625629Y-63426466D01*
X115628500Y-63389989D01*
X115628499Y-62990012D01*
X115625629Y-62953534D01*
X115580269Y-62797404D01*
X115560838Y-62764547D01*
X115501540Y-62664280D01*
X115497506Y-62657459D01*
X115382541Y-62542494D01*
X115321327Y-62506292D01*
X115249419Y-62463766D01*
X115249418Y-62463766D01*
X115242596Y-62459731D01*
X115234985Y-62457520D01*
X115234983Y-62457519D01*
X115092644Y-62416166D01*
X115092645Y-62416166D01*
X115086466Y-62414371D01*
X115080059Y-62413867D01*
X115080055Y-62413866D01*
X115052444Y-62411693D01*
X115052438Y-62411693D01*
X115049989Y-62411500D01*
X114969595Y-62411500D01*
X114901474Y-62391498D01*
X114880500Y-62374595D01*
X114836152Y-62330247D01*
X114828612Y-62321961D01*
X114824500Y-62315482D01*
X114774848Y-62268856D01*
X114772007Y-62266102D01*
X114752270Y-62246365D01*
X114749073Y-62243885D01*
X114740051Y-62236180D01*
X114713600Y-62211341D01*
X114707821Y-62205914D01*
X114700875Y-62202095D01*
X114700872Y-62202093D01*
X114690066Y-62196152D01*
X114673543Y-62185298D01*
X114666642Y-62179945D01*
X114625076Y-62122389D01*
X114622966Y-62048512D01*
X114622621Y-62048449D01*
X114622917Y-62046826D01*
X114622872Y-62045233D01*
X114625573Y-62035937D01*
X114628500Y-61998747D01*
X114628500Y-61922132D01*
X114648502Y-61854011D01*
X114665405Y-61833037D01*
X114836773Y-61661669D01*
X114845059Y-61654129D01*
X114851538Y-61650017D01*
X114898164Y-61600365D01*
X114900918Y-61597524D01*
X114920655Y-61577787D01*
X114923135Y-61574590D01*
X114930840Y-61565568D01*
X114931962Y-61564373D01*
X114961106Y-61533338D01*
X114964925Y-61526392D01*
X114964927Y-61526389D01*
X114970868Y-61515583D01*
X114981719Y-61499064D01*
X114982079Y-61498600D01*
X114994134Y-61483058D01*
X114997279Y-61475789D01*
X114997282Y-61475785D01*
X115011694Y-61442480D01*
X115016911Y-61431830D01*
X115038215Y-61393077D01*
X115043253Y-61373454D01*
X115049657Y-61354751D01*
X115054553Y-61343437D01*
X115054553Y-61343436D01*
X115057701Y-61336162D01*
X115058940Y-61328339D01*
X115058943Y-61328329D01*
X115064619Y-61292493D01*
X115067025Y-61280873D01*
X115076048Y-61245728D01*
X115076048Y-61245727D01*
X115078020Y-61238047D01*
X115078020Y-61217793D01*
X115079571Y-61198082D01*
X115081500Y-61185903D01*
X115082740Y-61178074D01*
X115078579Y-61134055D01*
X115078020Y-61122198D01*
X115078020Y-59613250D01*
X115078547Y-59602067D01*
X115080222Y-59594574D01*
X115078082Y-59526483D01*
X115078020Y-59522526D01*
X115078020Y-59494627D01*
X115077516Y-59490636D01*
X115076583Y-59478794D01*
X115076465Y-59475013D01*
X115075194Y-59434594D01*
X115072982Y-59426980D01*
X115072981Y-59426975D01*
X115069543Y-59415142D01*
X115065532Y-59395778D01*
X115063987Y-59383547D01*
X115062994Y-59375686D01*
X115060077Y-59368319D01*
X115060076Y-59368314D01*
X115046718Y-59334575D01*
X115042874Y-59323348D01*
X115032750Y-59288505D01*
X115030538Y-59280890D01*
X115020227Y-59263455D01*
X115011532Y-59245707D01*
X115004072Y-59226866D01*
X114978084Y-59191096D01*
X114971568Y-59181176D01*
X114953100Y-59149948D01*
X114953098Y-59149945D01*
X114949062Y-59143121D01*
X114934741Y-59128800D01*
X114921900Y-59113766D01*
X114914652Y-59103790D01*
X114909992Y-59097376D01*
X114875921Y-59069190D01*
X114867142Y-59061201D01*
X114665404Y-58859463D01*
X114631378Y-58797151D01*
X114628499Y-58770368D01*
X114628499Y-58693754D01*
X114625573Y-58656563D01*
X114579332Y-58497400D01*
X114575297Y-58490577D01*
X114498996Y-58361558D01*
X114498996Y-58361557D01*
X114494962Y-58354737D01*
X114377763Y-58237538D01*
X114235100Y-58153168D01*
X114227489Y-58150957D01*
X114227487Y-58150956D01*
X114176804Y-58136232D01*
X114075937Y-58106927D01*
X114069532Y-58106423D01*
X114069527Y-58106422D01*
X114041203Y-58104193D01*
X114041195Y-58104193D01*
X114038747Y-58104000D01*
X114030094Y-58104000D01*
X113714498Y-58104001D01*
X113646379Y-58083999D01*
X113599886Y-58030344D01*
X113588499Y-57978001D01*
X113588499Y-57961254D01*
X113585573Y-57924063D01*
X113539332Y-57764900D01*
X113532754Y-57753777D01*
X113458996Y-57629058D01*
X113458996Y-57629057D01*
X113454962Y-57622237D01*
X113337763Y-57505038D01*
X113225297Y-57438526D01*
X113201923Y-57424703D01*
X113195100Y-57420668D01*
X113187489Y-57418457D01*
X113187487Y-57418456D01*
X113132162Y-57402383D01*
X113035937Y-57374427D01*
X113029532Y-57373923D01*
X113029527Y-57373922D01*
X113001203Y-57371693D01*
X113001195Y-57371693D01*
X112998747Y-57371500D01*
X112922132Y-57371500D01*
X112854011Y-57351498D01*
X112833037Y-57334595D01*
X112661669Y-57163227D01*
X112654129Y-57154941D01*
X112650017Y-57148462D01*
X112624051Y-57124078D01*
X112600366Y-57101837D01*
X112597524Y-57099082D01*
X112577787Y-57079345D01*
X112574590Y-57076865D01*
X112565568Y-57069160D01*
X112552139Y-57056549D01*
X112533338Y-57038894D01*
X112526392Y-57035075D01*
X112526389Y-57035073D01*
X112515583Y-57029132D01*
X112499064Y-57018281D01*
X112498600Y-57017921D01*
X112483058Y-57005866D01*
X112475789Y-57002721D01*
X112475785Y-57002718D01*
X112442480Y-56988306D01*
X112431830Y-56983089D01*
X112393077Y-56961785D01*
X112373454Y-56956747D01*
X112354751Y-56950343D01*
X112343437Y-56945447D01*
X112343436Y-56945447D01*
X112336162Y-56942299D01*
X112328339Y-56941060D01*
X112328329Y-56941057D01*
X112292493Y-56935381D01*
X112280873Y-56932975D01*
X112245728Y-56923952D01*
X112245727Y-56923952D01*
X112238047Y-56921980D01*
X112217793Y-56921980D01*
X112198082Y-56920429D01*
X112185903Y-56918500D01*
X112178074Y-56917260D01*
X112148803Y-56920027D01*
X112134056Y-56921421D01*
X112122198Y-56921980D01*
X110613250Y-56921980D01*
X110602067Y-56921453D01*
X110594574Y-56919778D01*
X110586648Y-56920027D01*
X110586647Y-56920027D01*
X110526484Y-56921918D01*
X110522526Y-56921980D01*
X110494627Y-56921980D01*
X110490637Y-56922484D01*
X110478803Y-56923416D01*
X110434594Y-56924806D01*
X110426980Y-56927018D01*
X110426975Y-56927019D01*
X110415142Y-56930457D01*
X110395779Y-56934468D01*
X110375686Y-56937006D01*
X110368319Y-56939923D01*
X110368314Y-56939924D01*
X110334575Y-56953282D01*
X110323348Y-56957126D01*
X110280890Y-56969462D01*
X110274064Y-56973499D01*
X110263455Y-56979773D01*
X110245707Y-56988468D01*
X110226866Y-56995928D01*
X110220450Y-57000590D01*
X110220449Y-57000590D01*
X110191096Y-57021916D01*
X110181176Y-57028432D01*
X110149948Y-57046900D01*
X110149945Y-57046902D01*
X110143121Y-57050938D01*
X110128800Y-57065259D01*
X110113767Y-57078099D01*
X110097376Y-57090008D01*
X110092323Y-57096116D01*
X110069191Y-57124078D01*
X110061201Y-57132858D01*
X109859463Y-57334596D01*
X109797151Y-57368622D01*
X109770368Y-57371501D01*
X109693754Y-57371501D01*
X109656563Y-57374427D01*
X109623240Y-57384108D01*
X109552245Y-57383905D01*
X109492628Y-57345351D01*
X109479637Y-57327253D01*
X109474542Y-57318638D01*
X109460221Y-57304317D01*
X109447380Y-57289283D01*
X109440132Y-57279307D01*
X109435472Y-57272893D01*
X109401401Y-57244707D01*
X109392622Y-57236718D01*
X109075404Y-56919500D01*
X109041378Y-56857188D01*
X109038499Y-56830405D01*
X109038499Y-56750012D01*
X109035629Y-56713534D01*
X109003186Y-56601866D01*
X108992481Y-56565017D01*
X108992480Y-56565015D01*
X108990269Y-56557404D01*
X108984436Y-56547540D01*
X108911540Y-56424280D01*
X108907506Y-56417459D01*
X108792541Y-56302494D01*
X108785720Y-56298460D01*
X108659419Y-56223766D01*
X108659418Y-56223766D01*
X108652596Y-56219731D01*
X108644985Y-56217520D01*
X108644983Y-56217519D01*
X108502644Y-56176166D01*
X108502645Y-56176166D01*
X108496466Y-56174371D01*
X108490059Y-56173867D01*
X108490055Y-56173866D01*
X108462444Y-56171693D01*
X108462438Y-56171693D01*
X108459989Y-56171500D01*
X108260122Y-56171500D01*
X108060012Y-56171501D01*
X108023534Y-56174371D01*
X107948285Y-56196233D01*
X107875017Y-56217519D01*
X107875015Y-56217520D01*
X107867404Y-56219731D01*
X107860579Y-56223767D01*
X107860575Y-56223769D01*
X107814139Y-56251231D01*
X107745323Y-56268691D01*
X107685861Y-56251231D01*
X107639425Y-56223769D01*
X107639421Y-56223767D01*
X107632596Y-56219731D01*
X107624985Y-56217520D01*
X107624983Y-56217519D01*
X107482644Y-56176166D01*
X107482645Y-56176166D01*
X107476466Y-56174371D01*
X107470059Y-56173867D01*
X107470055Y-56173866D01*
X107442444Y-56171693D01*
X107442438Y-56171693D01*
X107439989Y-56171500D01*
X107240122Y-56171500D01*
X107040012Y-56171501D01*
X107003534Y-56174371D01*
X106928285Y-56196233D01*
X106855017Y-56217519D01*
X106855015Y-56217520D01*
X106847404Y-56219731D01*
X106840582Y-56223766D01*
X106840581Y-56223766D01*
X106714280Y-56298460D01*
X106707459Y-56302494D01*
X106592494Y-56417459D01*
X106588460Y-56424280D01*
X106515565Y-56547540D01*
X106509731Y-56557404D01*
X106507520Y-56565015D01*
X106507519Y-56565017D01*
X106485452Y-56640972D01*
X106447239Y-56700808D01*
X106382742Y-56730485D01*
X106329302Y-56726816D01*
X106292644Y-56716166D01*
X106292645Y-56716166D01*
X106286466Y-56714371D01*
X106280059Y-56713867D01*
X106280055Y-56713866D01*
X106252444Y-56711693D01*
X106252438Y-56711693D01*
X106249989Y-56711500D01*
X106000152Y-56711500D01*
X105750012Y-56711501D01*
X105713534Y-56714371D01*
X105616730Y-56742495D01*
X105565017Y-56757519D01*
X105565015Y-56757520D01*
X105557404Y-56759731D01*
X105550582Y-56763766D01*
X105550581Y-56763766D01*
X105437900Y-56830405D01*
X105417459Y-56842494D01*
X105302494Y-56957459D01*
X105298460Y-56964280D01*
X105231845Y-57076921D01*
X105219731Y-57097404D01*
X105217520Y-57105015D01*
X105217519Y-57105017D01*
X105209431Y-57132858D01*
X105174371Y-57253534D01*
X105171500Y-57290011D01*
X105171500Y-57370405D01*
X105151498Y-57438526D01*
X105134595Y-57459500D01*
X104857747Y-57736348D01*
X104849461Y-57743888D01*
X104842982Y-57748000D01*
X104837557Y-57753777D01*
X104796357Y-57797651D01*
X104793602Y-57800493D01*
X104773865Y-57820230D01*
X104771385Y-57823427D01*
X104763682Y-57832447D01*
X104733414Y-57864679D01*
X104729595Y-57871625D01*
X104729593Y-57871628D01*
X104723652Y-57882434D01*
X104712801Y-57898953D01*
X104700386Y-57914959D01*
X104697241Y-57922228D01*
X104697238Y-57922232D01*
X104682826Y-57955537D01*
X104677609Y-57966187D01*
X104656305Y-58004940D01*
X104654334Y-58012615D01*
X104654334Y-58012616D01*
X104651267Y-58024562D01*
X104644863Y-58043266D01*
X104636819Y-58061855D01*
X104635580Y-58069678D01*
X104635577Y-58069688D01*
X104629901Y-58105524D01*
X104627495Y-58117144D01*
X104616500Y-58159970D01*
X104616500Y-58180224D01*
X104614949Y-58199934D01*
X104611780Y-58219943D01*
X104612526Y-58227835D01*
X104615941Y-58263961D01*
X104616500Y-58275819D01*
X104616500Y-62472263D01*
X104596498Y-62540384D01*
X104542842Y-62586877D01*
X104472568Y-62596981D01*
X104407988Y-62567487D01*
X104401405Y-62561358D01*
X104382541Y-62542494D01*
X104321327Y-62506292D01*
X104249419Y-62463766D01*
X104249418Y-62463766D01*
X104242596Y-62459731D01*
X104234985Y-62457520D01*
X104234983Y-62457519D01*
X104092644Y-62416166D01*
X104092645Y-62416166D01*
X104086466Y-62414371D01*
X104080059Y-62413867D01*
X104080055Y-62413866D01*
X104052444Y-62411693D01*
X104052438Y-62411693D01*
X104049989Y-62411500D01*
X103969595Y-62411500D01*
X103901474Y-62391498D01*
X103880500Y-62374595D01*
X103836152Y-62330247D01*
X103828612Y-62321961D01*
X103824500Y-62315482D01*
X103774848Y-62268856D01*
X103772007Y-62266102D01*
X103752270Y-62246365D01*
X103749073Y-62243885D01*
X103740051Y-62236180D01*
X103713600Y-62211341D01*
X103707821Y-62205914D01*
X103700875Y-62202095D01*
X103700872Y-62202093D01*
X103690066Y-62196152D01*
X103673543Y-62185298D01*
X103666642Y-62179945D01*
X103625076Y-62122389D01*
X103622966Y-62048512D01*
X103622621Y-62048449D01*
X103622917Y-62046826D01*
X103622872Y-62045233D01*
X103625573Y-62035937D01*
X103628500Y-61998747D01*
X103628500Y-61922132D01*
X103648502Y-61854011D01*
X103665405Y-61833037D01*
X103836773Y-61661669D01*
X103845059Y-61654129D01*
X103851538Y-61650017D01*
X103898164Y-61600365D01*
X103900918Y-61597524D01*
X103920655Y-61577787D01*
X103923135Y-61574590D01*
X103930840Y-61565568D01*
X103931962Y-61564373D01*
X103961106Y-61533338D01*
X103964925Y-61526392D01*
X103964927Y-61526389D01*
X103970868Y-61515583D01*
X103981719Y-61499064D01*
X103982079Y-61498600D01*
X103994134Y-61483058D01*
X103997279Y-61475789D01*
X103997282Y-61475785D01*
X104011694Y-61442480D01*
X104016911Y-61431830D01*
X104038215Y-61393077D01*
X104043253Y-61373454D01*
X104049657Y-61354751D01*
X104054553Y-61343437D01*
X104054553Y-61343436D01*
X104057701Y-61336162D01*
X104058940Y-61328339D01*
X104058943Y-61328329D01*
X104064619Y-61292493D01*
X104067025Y-61280873D01*
X104076048Y-61245728D01*
X104076048Y-61245727D01*
X104078020Y-61238047D01*
X104078020Y-61217793D01*
X104079571Y-61198082D01*
X104081500Y-61185903D01*
X104082740Y-61178074D01*
X104078579Y-61134055D01*
X104078020Y-61122198D01*
X104078020Y-59613250D01*
X104078547Y-59602067D01*
X104080222Y-59594574D01*
X104078082Y-59526483D01*
X104078020Y-59522526D01*
X104078020Y-59494627D01*
X104077516Y-59490636D01*
X104076583Y-59478794D01*
X104076465Y-59475013D01*
X104075194Y-59434594D01*
X104072982Y-59426980D01*
X104072981Y-59426975D01*
X104069543Y-59415142D01*
X104065532Y-59395778D01*
X104063987Y-59383547D01*
X104062994Y-59375686D01*
X104060077Y-59368319D01*
X104060076Y-59368314D01*
X104046718Y-59334575D01*
X104042874Y-59323348D01*
X104032750Y-59288505D01*
X104030538Y-59280890D01*
X104020227Y-59263455D01*
X104011532Y-59245707D01*
X104004072Y-59226866D01*
X103978084Y-59191096D01*
X103971568Y-59181176D01*
X103953100Y-59149948D01*
X103953098Y-59149945D01*
X103949062Y-59143121D01*
X103934741Y-59128800D01*
X103921900Y-59113766D01*
X103914652Y-59103790D01*
X103909992Y-59097376D01*
X103875921Y-59069190D01*
X103867142Y-59061201D01*
X103665404Y-58859463D01*
X103631378Y-58797151D01*
X103628499Y-58770368D01*
X103628499Y-58693754D01*
X103625573Y-58656563D01*
X103579332Y-58497400D01*
X103575297Y-58490577D01*
X103498996Y-58361558D01*
X103498996Y-58361557D01*
X103494962Y-58354737D01*
X103377763Y-58237538D01*
X103235100Y-58153168D01*
X103227489Y-58150957D01*
X103227487Y-58150956D01*
X103176804Y-58136232D01*
X103075937Y-58106927D01*
X103069532Y-58106423D01*
X103069527Y-58106422D01*
X103041203Y-58104193D01*
X103041195Y-58104193D01*
X103038747Y-58104000D01*
X103030094Y-58104000D01*
X102714498Y-58104001D01*
X102646379Y-58083999D01*
X102599886Y-58030344D01*
X102588499Y-57978001D01*
X102588499Y-57961254D01*
X102585573Y-57924063D01*
X102539332Y-57764900D01*
X102532754Y-57753777D01*
X102458996Y-57629058D01*
X102458996Y-57629057D01*
X102454962Y-57622237D01*
X102337763Y-57505038D01*
X102225297Y-57438526D01*
X102201923Y-57424703D01*
X102195100Y-57420668D01*
X102187489Y-57418457D01*
X102187487Y-57418456D01*
X102132162Y-57402383D01*
X102035937Y-57374427D01*
X102029532Y-57373923D01*
X102029527Y-57373922D01*
X102001203Y-57371693D01*
X102001195Y-57371693D01*
X101998747Y-57371500D01*
X101922132Y-57371500D01*
X101854011Y-57351498D01*
X101833037Y-57334595D01*
X101661669Y-57163227D01*
X101654129Y-57154941D01*
X101650017Y-57148462D01*
X101624051Y-57124078D01*
X101600366Y-57101837D01*
X101597524Y-57099082D01*
X101577787Y-57079345D01*
X101574590Y-57076865D01*
X101565568Y-57069160D01*
X101552139Y-57056549D01*
X101533338Y-57038894D01*
X101526392Y-57035075D01*
X101526389Y-57035073D01*
X101515583Y-57029132D01*
X101499064Y-57018281D01*
X101498600Y-57017921D01*
X101483058Y-57005866D01*
X101475789Y-57002721D01*
X101475785Y-57002718D01*
X101442480Y-56988306D01*
X101431830Y-56983089D01*
X101393077Y-56961785D01*
X101373454Y-56956747D01*
X101354751Y-56950343D01*
X101343437Y-56945447D01*
X101343436Y-56945447D01*
X101336162Y-56942299D01*
X101328339Y-56941060D01*
X101328329Y-56941057D01*
X101292493Y-56935381D01*
X101280873Y-56932975D01*
X101245728Y-56923952D01*
X101245727Y-56923952D01*
X101238047Y-56921980D01*
X101217793Y-56921980D01*
X101198082Y-56920429D01*
X101185903Y-56918500D01*
X101178074Y-56917260D01*
X101148803Y-56920027D01*
X101134056Y-56921421D01*
X101122198Y-56921980D01*
X99613250Y-56921980D01*
X99602067Y-56921453D01*
X99594574Y-56919778D01*
X99586648Y-56920027D01*
X99586647Y-56920027D01*
X99526484Y-56921918D01*
X99522526Y-56921980D01*
X99494627Y-56921980D01*
X99490637Y-56922484D01*
X99478803Y-56923416D01*
X99434594Y-56924806D01*
X99426980Y-56927018D01*
X99426975Y-56927019D01*
X99415142Y-56930457D01*
X99395779Y-56934468D01*
X99375686Y-56937006D01*
X99368319Y-56939923D01*
X99368314Y-56939924D01*
X99334575Y-56953282D01*
X99323348Y-56957126D01*
X99280890Y-56969462D01*
X99274064Y-56973499D01*
X99263455Y-56979773D01*
X99245707Y-56988468D01*
X99226866Y-56995928D01*
X99220450Y-57000590D01*
X99220449Y-57000590D01*
X99191096Y-57021916D01*
X99181176Y-57028432D01*
X99149948Y-57046900D01*
X99149945Y-57046902D01*
X99143121Y-57050938D01*
X99128800Y-57065259D01*
X99113767Y-57078099D01*
X99097376Y-57090008D01*
X99092323Y-57096116D01*
X99069191Y-57124078D01*
X99061201Y-57132858D01*
X98859463Y-57334596D01*
X98797151Y-57368622D01*
X98770368Y-57371501D01*
X98693754Y-57371501D01*
X98656563Y-57374427D01*
X98623240Y-57384108D01*
X98552245Y-57383905D01*
X98492628Y-57345351D01*
X98479637Y-57327253D01*
X98474542Y-57318638D01*
X98460221Y-57304317D01*
X98447380Y-57289283D01*
X98440132Y-57279307D01*
X98435472Y-57272893D01*
X98401401Y-57244707D01*
X98392622Y-57236718D01*
X98075404Y-56919500D01*
X98041378Y-56857188D01*
X98038499Y-56830405D01*
X98038499Y-56750012D01*
X98035629Y-56713534D01*
X98003186Y-56601866D01*
X97992481Y-56565017D01*
X97992480Y-56565015D01*
X97990269Y-56557404D01*
X97984436Y-56547540D01*
X97911540Y-56424280D01*
X97907506Y-56417459D01*
X97792541Y-56302494D01*
X97785720Y-56298460D01*
X97659419Y-56223766D01*
X97659418Y-56223766D01*
X97652596Y-56219731D01*
X97644985Y-56217520D01*
X97644983Y-56217519D01*
X97502644Y-56176166D01*
X97502645Y-56176166D01*
X97496466Y-56174371D01*
X97490059Y-56173867D01*
X97490055Y-56173866D01*
X97462444Y-56171693D01*
X97462438Y-56171693D01*
X97459989Y-56171500D01*
X97260122Y-56171500D01*
X97060012Y-56171501D01*
X97023534Y-56174371D01*
X96948285Y-56196233D01*
X96875017Y-56217519D01*
X96875015Y-56217520D01*
X96867404Y-56219731D01*
X96860579Y-56223767D01*
X96860575Y-56223769D01*
X96814139Y-56251231D01*
X96745323Y-56268691D01*
X96685861Y-56251231D01*
X96639425Y-56223769D01*
X96639421Y-56223767D01*
X96632596Y-56219731D01*
X96624985Y-56217520D01*
X96624983Y-56217519D01*
X96482644Y-56176166D01*
X96482645Y-56176166D01*
X96476466Y-56174371D01*
X96470059Y-56173867D01*
X96470055Y-56173866D01*
X96442444Y-56171693D01*
X96442438Y-56171693D01*
X96439989Y-56171500D01*
X96240122Y-56171500D01*
X96040012Y-56171501D01*
X96003534Y-56174371D01*
X95928285Y-56196233D01*
X95855017Y-56217519D01*
X95855015Y-56217520D01*
X95847404Y-56219731D01*
X95840582Y-56223766D01*
X95840581Y-56223766D01*
X95714280Y-56298460D01*
X95707459Y-56302494D01*
X95592494Y-56417459D01*
X95588460Y-56424280D01*
X95515565Y-56547540D01*
X95509731Y-56557404D01*
X95507520Y-56565015D01*
X95507519Y-56565017D01*
X95485452Y-56640972D01*
X95447239Y-56700808D01*
X95382742Y-56730485D01*
X95329302Y-56726816D01*
X95292644Y-56716166D01*
X95292645Y-56716166D01*
X95286466Y-56714371D01*
X95280059Y-56713867D01*
X95280055Y-56713866D01*
X95252444Y-56711693D01*
X95252438Y-56711693D01*
X95249989Y-56711500D01*
X95000152Y-56711500D01*
X94750012Y-56711501D01*
X94713534Y-56714371D01*
X94616730Y-56742495D01*
X94565017Y-56757519D01*
X94565015Y-56757520D01*
X94557404Y-56759731D01*
X94550582Y-56763766D01*
X94550581Y-56763766D01*
X94437900Y-56830405D01*
X94417459Y-56842494D01*
X94302494Y-56957459D01*
X94298460Y-56964280D01*
X94231845Y-57076921D01*
X94219731Y-57097404D01*
X94217520Y-57105015D01*
X94217519Y-57105017D01*
X94209431Y-57132858D01*
X94174371Y-57253534D01*
X94171500Y-57290011D01*
X94171500Y-57370405D01*
X94151498Y-57438526D01*
X94134595Y-57459500D01*
X93857747Y-57736348D01*
X93849461Y-57743888D01*
X93842982Y-57748000D01*
X93837557Y-57753777D01*
X93796357Y-57797651D01*
X93793602Y-57800493D01*
X93773865Y-57820230D01*
X93771385Y-57823427D01*
X93763682Y-57832447D01*
X93733414Y-57864679D01*
X93729595Y-57871625D01*
X93729593Y-57871628D01*
X93723652Y-57882434D01*
X93712801Y-57898953D01*
X93700386Y-57914959D01*
X93697241Y-57922228D01*
X93697238Y-57922232D01*
X93682826Y-57955537D01*
X93677609Y-57966187D01*
X93656305Y-58004940D01*
X93654334Y-58012615D01*
X93654334Y-58012616D01*
X93651267Y-58024562D01*
X93644863Y-58043266D01*
X93636819Y-58061855D01*
X93635580Y-58069678D01*
X93635577Y-58069688D01*
X93629901Y-58105524D01*
X93627495Y-58117144D01*
X93616500Y-58159970D01*
X93616500Y-58180224D01*
X93614949Y-58199934D01*
X93611780Y-58219943D01*
X93612526Y-58227835D01*
X93615941Y-58263961D01*
X93616500Y-58275819D01*
X93616500Y-62472263D01*
X93596498Y-62540384D01*
X93542842Y-62586877D01*
X93472568Y-62596981D01*
X93407988Y-62567487D01*
X93401405Y-62561358D01*
X93382541Y-62542494D01*
X93321327Y-62506292D01*
X93249419Y-62463766D01*
X93249418Y-62463766D01*
X93242596Y-62459731D01*
X93234985Y-62457520D01*
X93234983Y-62457519D01*
X93092644Y-62416166D01*
X93092645Y-62416166D01*
X93086466Y-62414371D01*
X93080059Y-62413867D01*
X93080055Y-62413866D01*
X93052444Y-62411693D01*
X93052438Y-62411693D01*
X93049989Y-62411500D01*
X92969595Y-62411500D01*
X92901474Y-62391498D01*
X92880500Y-62374595D01*
X92836152Y-62330247D01*
X92828612Y-62321961D01*
X92824500Y-62315482D01*
X92774848Y-62268856D01*
X92772007Y-62266102D01*
X92752270Y-62246365D01*
X92749073Y-62243885D01*
X92740051Y-62236180D01*
X92713600Y-62211341D01*
X92707821Y-62205914D01*
X92700875Y-62202095D01*
X92700872Y-62202093D01*
X92690066Y-62196152D01*
X92673543Y-62185298D01*
X92666642Y-62179945D01*
X92625076Y-62122389D01*
X92622966Y-62048512D01*
X92622621Y-62048449D01*
X92622917Y-62046826D01*
X92622872Y-62045233D01*
X92625573Y-62035937D01*
X92628500Y-61998747D01*
X92628500Y-61922132D01*
X92648502Y-61854011D01*
X92665405Y-61833037D01*
X92836773Y-61661669D01*
X92845059Y-61654129D01*
X92851538Y-61650017D01*
X92898164Y-61600365D01*
X92900918Y-61597524D01*
X92920655Y-61577787D01*
X92923135Y-61574590D01*
X92930840Y-61565568D01*
X92931962Y-61564373D01*
X92961106Y-61533338D01*
X92964925Y-61526392D01*
X92964927Y-61526389D01*
X92970868Y-61515583D01*
X92981719Y-61499064D01*
X92982079Y-61498600D01*
X92994134Y-61483058D01*
X92997279Y-61475789D01*
X92997282Y-61475785D01*
X93011694Y-61442480D01*
X93016911Y-61431830D01*
X93038215Y-61393077D01*
X93043253Y-61373454D01*
X93049657Y-61354751D01*
X93054553Y-61343437D01*
X93054553Y-61343436D01*
X93057701Y-61336162D01*
X93058940Y-61328339D01*
X93058943Y-61328329D01*
X93064619Y-61292493D01*
X93067025Y-61280873D01*
X93076048Y-61245728D01*
X93076048Y-61245727D01*
X93078020Y-61238047D01*
X93078020Y-61217793D01*
X93079571Y-61198082D01*
X93081500Y-61185903D01*
X93082740Y-61178074D01*
X93078579Y-61134055D01*
X93078020Y-61122198D01*
X93078020Y-59613250D01*
X93078547Y-59602067D01*
X93080222Y-59594574D01*
X93078082Y-59526483D01*
X93078020Y-59522526D01*
X93078020Y-59494627D01*
X93077516Y-59490636D01*
X93076583Y-59478794D01*
X93076465Y-59475013D01*
X93075194Y-59434594D01*
X93072982Y-59426980D01*
X93072981Y-59426975D01*
X93069543Y-59415142D01*
X93065532Y-59395778D01*
X93063987Y-59383547D01*
X93062994Y-59375686D01*
X93060077Y-59368319D01*
X93060076Y-59368314D01*
X93046718Y-59334575D01*
X93042874Y-59323348D01*
X93032750Y-59288505D01*
X93030538Y-59280890D01*
X93020227Y-59263455D01*
X93011532Y-59245707D01*
X93004072Y-59226866D01*
X92978084Y-59191096D01*
X92971568Y-59181176D01*
X92953100Y-59149948D01*
X92953098Y-59149945D01*
X92949062Y-59143121D01*
X92934741Y-59128800D01*
X92921900Y-59113766D01*
X92914652Y-59103790D01*
X92909992Y-59097376D01*
X92875921Y-59069190D01*
X92867142Y-59061201D01*
X92665404Y-58859463D01*
X92631378Y-58797151D01*
X92628499Y-58770368D01*
X92628499Y-58693754D01*
X92625573Y-58656563D01*
X92579332Y-58497400D01*
X92575297Y-58490577D01*
X92498996Y-58361558D01*
X92498996Y-58361557D01*
X92494962Y-58354737D01*
X92377763Y-58237538D01*
X92235100Y-58153168D01*
X92227489Y-58150957D01*
X92227487Y-58150956D01*
X92176804Y-58136232D01*
X92075937Y-58106927D01*
X92069532Y-58106423D01*
X92069527Y-58106422D01*
X92041203Y-58104193D01*
X92041195Y-58104193D01*
X92038747Y-58104000D01*
X92030094Y-58104000D01*
X91714498Y-58104001D01*
X91646379Y-58083999D01*
X91599886Y-58030344D01*
X91588499Y-57978001D01*
X91588499Y-57961254D01*
X91585573Y-57924063D01*
X91539332Y-57764900D01*
X91532754Y-57753777D01*
X91458996Y-57629058D01*
X91458996Y-57629057D01*
X91454962Y-57622237D01*
X91337763Y-57505038D01*
X91225297Y-57438526D01*
X91201923Y-57424703D01*
X91195100Y-57420668D01*
X91187489Y-57418457D01*
X91187487Y-57418456D01*
X91132162Y-57402383D01*
X91035937Y-57374427D01*
X91029532Y-57373923D01*
X91029527Y-57373922D01*
X91001203Y-57371693D01*
X91001195Y-57371693D01*
X90998747Y-57371500D01*
X90922132Y-57371500D01*
X90854011Y-57351498D01*
X90833037Y-57334595D01*
X90661669Y-57163227D01*
X90654129Y-57154941D01*
X90650017Y-57148462D01*
X90624051Y-57124078D01*
X90600366Y-57101837D01*
X90597524Y-57099082D01*
X90577787Y-57079345D01*
X90574590Y-57076865D01*
X90565568Y-57069160D01*
X90552139Y-57056549D01*
X90533338Y-57038894D01*
X90526392Y-57035075D01*
X90526389Y-57035073D01*
X90515583Y-57029132D01*
X90499064Y-57018281D01*
X90498600Y-57017921D01*
X90483058Y-57005866D01*
X90475789Y-57002721D01*
X90475785Y-57002718D01*
X90442480Y-56988306D01*
X90431830Y-56983089D01*
X90393077Y-56961785D01*
X90373454Y-56956747D01*
X90354751Y-56950343D01*
X90343437Y-56945447D01*
X90343436Y-56945447D01*
X90336162Y-56942299D01*
X90328339Y-56941060D01*
X90328329Y-56941057D01*
X90292493Y-56935381D01*
X90280873Y-56932975D01*
X90245728Y-56923952D01*
X90245727Y-56923952D01*
X90238047Y-56921980D01*
X90217793Y-56921980D01*
X90198082Y-56920429D01*
X90185903Y-56918500D01*
X90178074Y-56917260D01*
X90148803Y-56920027D01*
X90134056Y-56921421D01*
X90122198Y-56921980D01*
X88613250Y-56921980D01*
X88602067Y-56921453D01*
X88594574Y-56919778D01*
X88586648Y-56920027D01*
X88586647Y-56920027D01*
X88526484Y-56921918D01*
X88522526Y-56921980D01*
X88494627Y-56921980D01*
X88490637Y-56922484D01*
X88478803Y-56923416D01*
X88434594Y-56924806D01*
X88426980Y-56927018D01*
X88426975Y-56927019D01*
X88415142Y-56930457D01*
X88395779Y-56934468D01*
X88375686Y-56937006D01*
X88368319Y-56939923D01*
X88368314Y-56939924D01*
X88334575Y-56953282D01*
X88323348Y-56957126D01*
X88280890Y-56969462D01*
X88274064Y-56973499D01*
X88263455Y-56979773D01*
X88245707Y-56988468D01*
X88226866Y-56995928D01*
X88220450Y-57000590D01*
X88220449Y-57000590D01*
X88191096Y-57021916D01*
X88181176Y-57028432D01*
X88149948Y-57046900D01*
X88149945Y-57046902D01*
X88143121Y-57050938D01*
X88128800Y-57065259D01*
X88113767Y-57078099D01*
X88097376Y-57090008D01*
X88092323Y-57096116D01*
X88069191Y-57124078D01*
X88061201Y-57132858D01*
X87859463Y-57334596D01*
X87797151Y-57368622D01*
X87770368Y-57371501D01*
X87693754Y-57371501D01*
X87656563Y-57374427D01*
X87623240Y-57384108D01*
X87552245Y-57383905D01*
X87492628Y-57345351D01*
X87479637Y-57327253D01*
X87474542Y-57318638D01*
X87460221Y-57304317D01*
X87447380Y-57289283D01*
X87440132Y-57279307D01*
X87435472Y-57272893D01*
X87401401Y-57244707D01*
X87392622Y-57236718D01*
X87075404Y-56919500D01*
X87041378Y-56857188D01*
X87038499Y-56830405D01*
X87038499Y-56750012D01*
X87035629Y-56713534D01*
X87003186Y-56601866D01*
X86992481Y-56565017D01*
X86992480Y-56565015D01*
X86990269Y-56557404D01*
X86984436Y-56547540D01*
X86911540Y-56424280D01*
X86907506Y-56417459D01*
X86792541Y-56302494D01*
X86785720Y-56298460D01*
X86659419Y-56223766D01*
X86659418Y-56223766D01*
X86652596Y-56219731D01*
X86644985Y-56217520D01*
X86644983Y-56217519D01*
X86502644Y-56176166D01*
X86502645Y-56176166D01*
X86496466Y-56174371D01*
X86490059Y-56173867D01*
X86490055Y-56173866D01*
X86462444Y-56171693D01*
X86462438Y-56171693D01*
X86459989Y-56171500D01*
X86260122Y-56171500D01*
X86060012Y-56171501D01*
X86023534Y-56174371D01*
X85948285Y-56196233D01*
X85875017Y-56217519D01*
X85875015Y-56217520D01*
X85867404Y-56219731D01*
X85860579Y-56223767D01*
X85860575Y-56223769D01*
X85814139Y-56251231D01*
X85745323Y-56268691D01*
X85685861Y-56251231D01*
X85639425Y-56223769D01*
X85639421Y-56223767D01*
X85632596Y-56219731D01*
X85624985Y-56217520D01*
X85624983Y-56217519D01*
X85482644Y-56176166D01*
X85482645Y-56176166D01*
X85476466Y-56174371D01*
X85470059Y-56173867D01*
X85470055Y-56173866D01*
X85442444Y-56171693D01*
X85442438Y-56171693D01*
X85439989Y-56171500D01*
X85240122Y-56171500D01*
X85040012Y-56171501D01*
X85003534Y-56174371D01*
X84928285Y-56196233D01*
X84855017Y-56217519D01*
X84855015Y-56217520D01*
X84847404Y-56219731D01*
X84840582Y-56223766D01*
X84840581Y-56223766D01*
X84714280Y-56298460D01*
X84707459Y-56302494D01*
X84592494Y-56417459D01*
X84588460Y-56424280D01*
X84515565Y-56547540D01*
X84509731Y-56557404D01*
X84507520Y-56565015D01*
X84507519Y-56565017D01*
X84485452Y-56640972D01*
X84447239Y-56700808D01*
X84382742Y-56730485D01*
X84329302Y-56726816D01*
X84292644Y-56716166D01*
X84292645Y-56716166D01*
X84286466Y-56714371D01*
X84280059Y-56713867D01*
X84280055Y-56713866D01*
X84252444Y-56711693D01*
X84252438Y-56711693D01*
X84249989Y-56711500D01*
X84000152Y-56711500D01*
X83750012Y-56711501D01*
X83713534Y-56714371D01*
X83616730Y-56742495D01*
X83565017Y-56757519D01*
X83565015Y-56757520D01*
X83557404Y-56759731D01*
X83550582Y-56763766D01*
X83550581Y-56763766D01*
X83437900Y-56830405D01*
X83417459Y-56842494D01*
X83302494Y-56957459D01*
X83298460Y-56964280D01*
X83231845Y-57076921D01*
X83219731Y-57097404D01*
X83217520Y-57105015D01*
X83217519Y-57105017D01*
X83209431Y-57132858D01*
X83174371Y-57253534D01*
X83171500Y-57290011D01*
X83171500Y-57370405D01*
X83151498Y-57438526D01*
X83134595Y-57459500D01*
X82857747Y-57736348D01*
X82849461Y-57743888D01*
X82842982Y-57748000D01*
X82837557Y-57753777D01*
X82796357Y-57797651D01*
X82793602Y-57800493D01*
X82773865Y-57820230D01*
X82771385Y-57823427D01*
X82763682Y-57832447D01*
X82733414Y-57864679D01*
X82729595Y-57871625D01*
X82729593Y-57871628D01*
X82723652Y-57882434D01*
X82712801Y-57898953D01*
X82700386Y-57914959D01*
X82697241Y-57922228D01*
X82697238Y-57922232D01*
X82682826Y-57955537D01*
X82677609Y-57966187D01*
X82656305Y-58004940D01*
X82654334Y-58012615D01*
X82654334Y-58012616D01*
X82651267Y-58024562D01*
X82644863Y-58043266D01*
X82636819Y-58061855D01*
X82635580Y-58069678D01*
X82635577Y-58069688D01*
X82629901Y-58105524D01*
X82627495Y-58117144D01*
X82616500Y-58159970D01*
X82616500Y-58180224D01*
X82614949Y-58199934D01*
X82611780Y-58219943D01*
X82612526Y-58227835D01*
X82615941Y-58263961D01*
X82616500Y-58275819D01*
X82616500Y-62472263D01*
X82596498Y-62540384D01*
X82542842Y-62586877D01*
X82472568Y-62596981D01*
X82407988Y-62567487D01*
X82401405Y-62561358D01*
X82382541Y-62542494D01*
X82321327Y-62506292D01*
X82249419Y-62463766D01*
X82249418Y-62463766D01*
X82242596Y-62459731D01*
X82234985Y-62457520D01*
X82234983Y-62457519D01*
X82092644Y-62416166D01*
X82092645Y-62416166D01*
X82086466Y-62414371D01*
X82080059Y-62413867D01*
X82080055Y-62413866D01*
X82052444Y-62411693D01*
X82052438Y-62411693D01*
X82049989Y-62411500D01*
X81969595Y-62411500D01*
X81901474Y-62391498D01*
X81880500Y-62374595D01*
X81836152Y-62330247D01*
X81828612Y-62321961D01*
X81824500Y-62315482D01*
X81774848Y-62268856D01*
X81772007Y-62266102D01*
X81752270Y-62246365D01*
X81749073Y-62243885D01*
X81740051Y-62236180D01*
X81713600Y-62211341D01*
X81707821Y-62205914D01*
X81700875Y-62202095D01*
X81700872Y-62202093D01*
X81690066Y-62196152D01*
X81673543Y-62185298D01*
X81666642Y-62179945D01*
X81625076Y-62122389D01*
X81622966Y-62048512D01*
X81622621Y-62048449D01*
X81622917Y-62046826D01*
X81622872Y-62045233D01*
X81625573Y-62035937D01*
X81628500Y-61998747D01*
X81628500Y-61922132D01*
X81648502Y-61854011D01*
X81665405Y-61833037D01*
X81836773Y-61661669D01*
X81845059Y-61654129D01*
X81851538Y-61650017D01*
X81898164Y-61600365D01*
X81900918Y-61597524D01*
X81920655Y-61577787D01*
X81923135Y-61574590D01*
X81930840Y-61565568D01*
X81931962Y-61564373D01*
X81961106Y-61533338D01*
X81964925Y-61526392D01*
X81964927Y-61526389D01*
X81970868Y-61515583D01*
X81981719Y-61499064D01*
X81982079Y-61498600D01*
X81994134Y-61483058D01*
X81997279Y-61475789D01*
X81997282Y-61475785D01*
X82011694Y-61442480D01*
X82016911Y-61431830D01*
X82038215Y-61393077D01*
X82043253Y-61373454D01*
X82049657Y-61354751D01*
X82054553Y-61343437D01*
X82054553Y-61343436D01*
X82057701Y-61336162D01*
X82058940Y-61328339D01*
X82058943Y-61328329D01*
X82064619Y-61292493D01*
X82067025Y-61280873D01*
X82076048Y-61245728D01*
X82076048Y-61245727D01*
X82078020Y-61238047D01*
X82078020Y-61217793D01*
X82079571Y-61198082D01*
X82081500Y-61185903D01*
X82082740Y-61178074D01*
X82078579Y-61134055D01*
X82078020Y-61122198D01*
X82078020Y-59613250D01*
X82078547Y-59602067D01*
X82080222Y-59594574D01*
X82078082Y-59526483D01*
X82078020Y-59522526D01*
X82078020Y-59494627D01*
X82077516Y-59490636D01*
X82076583Y-59478794D01*
X82076465Y-59475013D01*
X82075194Y-59434594D01*
X82072982Y-59426980D01*
X82072981Y-59426975D01*
X82069543Y-59415142D01*
X82065532Y-59395778D01*
X82063987Y-59383547D01*
X82062994Y-59375686D01*
X82060077Y-59368319D01*
X82060076Y-59368314D01*
X82046718Y-59334575D01*
X82042874Y-59323348D01*
X82032750Y-59288505D01*
X82030538Y-59280890D01*
X82020227Y-59263455D01*
X82011532Y-59245707D01*
X82004072Y-59226866D01*
X81978084Y-59191096D01*
X81971568Y-59181176D01*
X81953100Y-59149948D01*
X81953098Y-59149945D01*
X81949062Y-59143121D01*
X81934741Y-59128800D01*
X81921900Y-59113766D01*
X81914652Y-59103790D01*
X81909992Y-59097376D01*
X81875921Y-59069190D01*
X81867142Y-59061201D01*
X81665404Y-58859463D01*
X81631378Y-58797151D01*
X81628499Y-58770368D01*
X81628499Y-58693754D01*
X81625573Y-58656563D01*
X81579332Y-58497400D01*
X81575297Y-58490577D01*
X81498996Y-58361558D01*
X81498996Y-58361557D01*
X81494962Y-58354737D01*
X81377763Y-58237538D01*
X81235100Y-58153168D01*
X81227489Y-58150957D01*
X81227487Y-58150956D01*
X81176804Y-58136232D01*
X81075937Y-58106927D01*
X81069532Y-58106423D01*
X81069527Y-58106422D01*
X81041203Y-58104193D01*
X81041195Y-58104193D01*
X81038747Y-58104000D01*
X81030094Y-58104000D01*
X80714498Y-58104001D01*
X80646379Y-58083999D01*
X80599886Y-58030344D01*
X80588499Y-57978001D01*
X80588499Y-57961254D01*
X80585573Y-57924063D01*
X80539332Y-57764900D01*
X80532754Y-57753777D01*
X80458996Y-57629058D01*
X80458996Y-57629057D01*
X80454962Y-57622237D01*
X80337763Y-57505038D01*
X80225297Y-57438526D01*
X80201923Y-57424703D01*
X80195100Y-57420668D01*
X80187489Y-57418457D01*
X80187487Y-57418456D01*
X80132162Y-57402383D01*
X80035937Y-57374427D01*
X80029532Y-57373923D01*
X80029527Y-57373922D01*
X80001203Y-57371693D01*
X80001195Y-57371693D01*
X79998747Y-57371500D01*
X79922132Y-57371500D01*
X79854011Y-57351498D01*
X79833037Y-57334595D01*
X79661669Y-57163227D01*
X79654129Y-57154941D01*
X79650017Y-57148462D01*
X79624051Y-57124078D01*
X79600366Y-57101837D01*
X79597524Y-57099082D01*
X79577787Y-57079345D01*
X79574590Y-57076865D01*
X79565568Y-57069160D01*
X79552139Y-57056549D01*
X79533338Y-57038894D01*
X79526392Y-57035075D01*
X79526389Y-57035073D01*
X79515583Y-57029132D01*
X79499064Y-57018281D01*
X79498600Y-57017921D01*
X79483058Y-57005866D01*
X79475789Y-57002721D01*
X79475785Y-57002718D01*
X79442480Y-56988306D01*
X79431830Y-56983089D01*
X79393077Y-56961785D01*
X79373454Y-56956747D01*
X79354751Y-56950343D01*
X79343437Y-56945447D01*
X79343436Y-56945447D01*
X79336162Y-56942299D01*
X79328339Y-56941060D01*
X79328329Y-56941057D01*
X79292493Y-56935381D01*
X79280873Y-56932975D01*
X79245728Y-56923952D01*
X79245727Y-56923952D01*
X79238047Y-56921980D01*
X79217793Y-56921980D01*
X79198082Y-56920429D01*
X79185903Y-56918500D01*
X79178074Y-56917260D01*
X79148803Y-56920027D01*
X79134056Y-56921421D01*
X79122198Y-56921980D01*
X77613250Y-56921980D01*
X77602067Y-56921453D01*
X77594574Y-56919778D01*
X77586648Y-56920027D01*
X77586647Y-56920027D01*
X77526484Y-56921918D01*
X77522526Y-56921980D01*
X77494627Y-56921980D01*
X77490637Y-56922484D01*
X77478803Y-56923416D01*
X77434594Y-56924806D01*
X77426980Y-56927018D01*
X77426975Y-56927019D01*
X77415142Y-56930457D01*
X77395779Y-56934468D01*
X77375686Y-56937006D01*
X77368319Y-56939923D01*
X77368314Y-56939924D01*
X77334575Y-56953282D01*
X77323348Y-56957126D01*
X77280890Y-56969462D01*
X77274064Y-56973499D01*
X77263455Y-56979773D01*
X77245707Y-56988468D01*
X77226866Y-56995928D01*
X77220450Y-57000590D01*
X77220449Y-57000590D01*
X77191096Y-57021916D01*
X77181176Y-57028432D01*
X77149948Y-57046900D01*
X77149945Y-57046902D01*
X77143121Y-57050938D01*
X77128800Y-57065259D01*
X77113767Y-57078099D01*
X77097376Y-57090008D01*
X77092323Y-57096116D01*
X77069191Y-57124078D01*
X77061201Y-57132858D01*
X76859463Y-57334596D01*
X76797151Y-57368622D01*
X76770368Y-57371501D01*
X76693754Y-57371501D01*
X76656563Y-57374427D01*
X76623240Y-57384108D01*
X76552245Y-57383905D01*
X76492628Y-57345351D01*
X76479637Y-57327253D01*
X76474542Y-57318638D01*
X76460221Y-57304317D01*
X76447380Y-57289283D01*
X76440132Y-57279307D01*
X76435472Y-57272893D01*
X76401401Y-57244707D01*
X76392622Y-57236718D01*
X76075404Y-56919500D01*
X76041378Y-56857188D01*
X76038499Y-56830405D01*
X76038499Y-56750012D01*
X76035629Y-56713534D01*
X76003186Y-56601866D01*
X75992481Y-56565017D01*
X75992480Y-56565015D01*
X75990269Y-56557404D01*
X75984436Y-56547540D01*
X75911540Y-56424280D01*
X75907506Y-56417459D01*
X75792541Y-56302494D01*
X75785720Y-56298460D01*
X75659419Y-56223766D01*
X75659418Y-56223766D01*
X75652596Y-56219731D01*
X75644985Y-56217520D01*
X75644983Y-56217519D01*
X75502644Y-56176166D01*
X75502645Y-56176166D01*
X75496466Y-56174371D01*
X75490059Y-56173867D01*
X75490055Y-56173866D01*
X75462444Y-56171693D01*
X75462438Y-56171693D01*
X75459989Y-56171500D01*
X75260122Y-56171500D01*
X75060012Y-56171501D01*
X75023534Y-56174371D01*
X74948285Y-56196233D01*
X74875017Y-56217519D01*
X74875015Y-56217520D01*
X74867404Y-56219731D01*
X74860579Y-56223767D01*
X74860575Y-56223769D01*
X74814139Y-56251231D01*
X74745323Y-56268691D01*
X74685861Y-56251231D01*
X74639425Y-56223769D01*
X74639421Y-56223767D01*
X74632596Y-56219731D01*
X74624985Y-56217520D01*
X74624983Y-56217519D01*
X74482644Y-56176166D01*
X74482645Y-56176166D01*
X74476466Y-56174371D01*
X74470059Y-56173867D01*
X74470055Y-56173866D01*
X74442444Y-56171693D01*
X74442438Y-56171693D01*
X74439989Y-56171500D01*
X74240122Y-56171500D01*
X74040012Y-56171501D01*
X74003534Y-56174371D01*
X73928285Y-56196233D01*
X73855017Y-56217519D01*
X73855015Y-56217520D01*
X73847404Y-56219731D01*
X73840582Y-56223766D01*
X73840581Y-56223766D01*
X73714280Y-56298460D01*
X73707459Y-56302494D01*
X73592494Y-56417459D01*
X73588460Y-56424280D01*
X73515565Y-56547540D01*
X73509731Y-56557404D01*
X73507520Y-56565015D01*
X73507519Y-56565017D01*
X73485452Y-56640972D01*
X73447239Y-56700808D01*
X73382742Y-56730485D01*
X73329302Y-56726816D01*
X73292644Y-56716166D01*
X73292645Y-56716166D01*
X73286466Y-56714371D01*
X73280059Y-56713867D01*
X73280055Y-56713866D01*
X73252444Y-56711693D01*
X73252438Y-56711693D01*
X73249989Y-56711500D01*
X73000152Y-56711500D01*
X72750012Y-56711501D01*
X72713534Y-56714371D01*
X72616730Y-56742495D01*
X72565017Y-56757519D01*
X72565015Y-56757520D01*
X72557404Y-56759731D01*
X72550582Y-56763766D01*
X72550581Y-56763766D01*
X72437900Y-56830405D01*
X72417459Y-56842494D01*
X72302494Y-56957459D01*
X72298460Y-56964280D01*
X72231845Y-57076921D01*
X72219731Y-57097404D01*
X72217520Y-57105015D01*
X72217519Y-57105017D01*
X72209431Y-57132858D01*
X72174371Y-57253534D01*
X72171500Y-57290011D01*
X72171500Y-57370405D01*
X72151498Y-57438526D01*
X72134595Y-57459500D01*
X71857747Y-57736348D01*
X71849461Y-57743888D01*
X71842982Y-57748000D01*
X71837557Y-57753777D01*
X71796357Y-57797651D01*
X71793602Y-57800493D01*
X71773865Y-57820230D01*
X71771385Y-57823427D01*
X71763682Y-57832447D01*
X71733414Y-57864679D01*
X71729595Y-57871625D01*
X71729593Y-57871628D01*
X71723652Y-57882434D01*
X71712801Y-57898953D01*
X71700386Y-57914959D01*
X71697241Y-57922228D01*
X71697238Y-57922232D01*
X71682826Y-57955537D01*
X71677609Y-57966187D01*
X71656305Y-58004940D01*
X71654334Y-58012615D01*
X71654334Y-58012616D01*
X71651267Y-58024562D01*
X71644863Y-58043266D01*
X71636819Y-58061855D01*
X71635580Y-58069678D01*
X71635577Y-58069688D01*
X71629901Y-58105524D01*
X71627495Y-58117144D01*
X71616500Y-58159970D01*
X71616500Y-58180224D01*
X71614949Y-58199934D01*
X71611780Y-58219943D01*
X71612526Y-58227835D01*
X71615941Y-58263961D01*
X71616500Y-58275819D01*
X71616500Y-62921233D01*
X71615973Y-62932416D01*
X71614298Y-62939909D01*
X71614547Y-62947835D01*
X71614547Y-62947836D01*
X71616438Y-63007986D01*
X71616500Y-63011945D01*
X71616500Y-63039856D01*
X71616997Y-63043790D01*
X71616997Y-63043791D01*
X71617005Y-63043856D01*
X71617937Y-63055690D01*
X71618996Y-63089346D01*
X71601145Y-63158060D01*
X71553488Y-63200276D01*
X71555000Y-63202894D01*
X71549280Y-63206197D01*
X71543248Y-63208882D01*
X71388747Y-63321134D01*
X71384326Y-63326044D01*
X71384325Y-63326045D01*
X71331163Y-63385088D01*
X71260960Y-63463056D01*
X71165473Y-63628444D01*
X71106458Y-63810072D01*
X71105768Y-63816633D01*
X71105768Y-63816635D01*
X71099462Y-63876638D01*
X71086496Y-64000000D01*
X70508000Y-64000000D01*
X70508000Y-55634000D01*
X70528002Y-55565879D01*
X70581658Y-55519386D01*
X70634000Y-55508000D01*
X120124000Y-55508000D01*
X120192121Y-55528002D01*
G37*
%TD.AperFunction*%
%TD*%
M02*
